/* XPM */
static char *background50[] = {
/* columns rows colors chars-per-pixel */
"50 50 26 1 ",
"  c #3F2442",
". c #402443",
"X c #412444",
"o c #422445",
"O c #442447",
"+ c #452448",
"@ c #462449",
"# c #47244A",
"$ c #48254B",
"% c #48254C",
"& c #4B254E",
"* c #4D2551",
"= c #4E2551",
"- c #4E2552",
"; c #4F2552",
": c #4F2553",
"> c #522556",
", c #542658",
"< c #552658",
"1 c #552659",
"2 c #562659",
"3 c #57265B",
"4 c #59265D",
"5 c #5A265E",
"6 c #5B265F",
"7 c #5C2660",
/* pixels */
"ooooooooooooooooooooooooooooooooooooooooooooo+=,46",
"ooooooooooooooooooooOoooooooooooooooooooooooo+=,46",
"ooooooooooooooooooooooooooooooooooooooooooo.o+&,46",
"ooooooooOoooooooooooooooooooooooooooooooooooo+=,46",
"ooooooooooooooooooooooooooooooooooooooooooo.o+=,46",
"ooooooooooooooooooooooooooooooooooooooooooooo+=,46",
"ooooooooooooooooooooooooooooooooooooooooooo.o+=,46",
"oooooooooooooooooooooooooooooooooooooooooo.oo+=,46",
"ooooooooooooooooooooooooooooooooooooooooooooo+=,46",
"ooooooooooooooooooooooooooOooooooooooooooo..o+=,46",
"ooooooooooooooooooooooooooooooooooooooooooooo+&,46",
"ooooooooooooooooooOoooooooooooooooooooooooooo+=,46",
"oooooooooOooooooooooooooooooooooooooooooooooo+=,46",
"ooooooooooooooooooooooooooooooooooooooooooo.o+=,46",
"ooooooooooooooooooooooooooooooooooooooooooo.o+=,46",
"ooooooooooooooooooooooooooooooooooooooooooooo+=,46",
"ooooooooooooooooooooooooooooooooooooooooooooo+=,46",
"ooooooooooooooooooooooooooooooooooooooooooo.O+=,46",
"ooooooooooooooooooooooooooooooooooooooooooooo+=,46",
"ooooooooooooooooooooOoooooooooooooooOoooooo.o+&,46",
"ooooooooooooooooooooooooooooooooooooooooooo.o+=,46",
"ooooooooooooooooooooooooooooooooooooooooooo.o+=,46",
"ooooooooooooooooooooooooooooooooooooooooooooo+=,46",
"ooooOoooooooooooooooooooooooooooooooooooooo.o+=,46",
"oooooooooooooOooooooooooooooooooooooooooooooo+&,46",
"ooooooooooooooooooooooooooooooooooooooooooo.o+=,46",
"oooooooOoooooooooooooOooooooooooooooooooooooo+=,46",
"ooooooooooooooooooooooooooOoooooooooooooooooo+=,46",
"ooooooooooooooooooooooooooooooooooooooooooo.o+=,46",
"ooooooooooooooooooooooooooooooooooooooooooooo+=,46",
"oooooooooooooooooooooooooooooooooooooooooo.oo+=,46",
"ooooooooooooooooooooooooooooooooooooooooooo.o+=,46",
"ooooooooooooooooooooooooooooooooooooooooooo.o+=,46",
"ooooooooooooooooooooooooooooooooooooooooooooo+=,46",
"oooooooooooooooooooooooooooooooooooooOooooo.o+=,46",
"ooooooooooooooooooooooooooooooooooooooooooooo+&,46",
"ooooooooooooooooooooooooooooooooooooooooooooo+=,46",
"ooooooOooooooooooooooooooooooooooooooooooo.oo+=,46",
"ooooooooooooooooooooooooooooooooooooooooooo.o+=,46",
"ooooooooooooooooooooooooooooooooooooooooooooo+=,46",
"oooooooooOooooooooooooooooooooooooooooooooo.o+=,46",
"ooooooooooooooooooooooooooooooooooooooooooooo+=,47",
"ooooo.ooooooooooooooooooooooooooo.ooooooooo.o+=,47",
"o..o.ooooo..o.o..o.oo..oo..o..oo.oo.o.ooo...o+&,67",
"oooooooooooooooooooOoooooooooooOooooooooooo.o+=,47",
"+++++++++++++++++++++++++++++++++++++++++++++%=>,,",
"======&=========&=====&======&======&=======&===>=",
">,,,,,,,,,,,>,,,,,,,,,,,,,,,,,,,,,,,,,,,,,,,,>>%#+",
"444444444444444444444444444444444444444444444,=#Oo",
"7467666666666666666666666666666674666666667764>#o "
};
