/* XPM */
static char *background100[] = {
/* columns rows colors chars-per-pixel */
"100 100 48 1 ",
"  c #3F2442",
". c #402442",
"X c #402443",
"o c #412444",
"O c #422445",
"+ c #432446",
"@ c #442447",
"# c #442448",
"$ c #452448",
"% c #462449",
"& c #46244A",
"* c #47244A",
"= c #47244B",
"- c #48244B",
"; c #49254C",
": c #49254D",
"> c #4A254D",
", c #4A254E",
"< c #4B254E",
"1 c #4B254F",
"2 c #4C254F",
"3 c #4C2550",
"4 c #4D2550",
"5 c #4D2551",
"6 c #4E2551",
"7 c #4E2552",
"8 c #4F2552",
"9 c #4F2553",
"0 c #502553",
"q c #502554",
"w c #512554",
"e c #512555",
"r c #522555",
"t c #522556",
"y c #532556",
"u c #532557",
"i c #542557",
"p c #542658",
"a c #552659",
"s c #56265A",
"d c #57265B",
"f c #58265C",
"g c #59265D",
"h c #5A265E",
"j c #5B265F",
"k c #5B2660",
"l c #5C2660",
"z c #5C2661",
/* pixels */
"OOOOOOOOOOOOOOOO+X+X++++X+X+X++++++X+X+++X+X++++X+X+X++++++X+X+++++++X++++++++X+X+++X+X++++=<8usffzz",
"OOOOOOOOOOOOOOOO+++++++X+++++++X+X++++X++++++++X+++++++X+X++++X+X+X+++X++X+X+X+++++X+XXXX+#=28usfffz",
"OOOOOOOOOOOOOOOO+X++X+X+++X+X+X++X+X+++++X++X+X+++X+X+X++X+X++++++++++++X+++++++X+X++X+X++@=<8usfzzz",
"OOOOOOOOOOOOOOOO++X++++++X++++++++++++X+++X++++++X++++++++++++X++X+XX+X++++X++X+++++++X+++#=<8usfffk",
"OOOOOOOOOOOOOOOO+X+XX+X++X+++XX++X++X+X++X+XX+X++X+++XX++X++X+X+++X++++++++X+++X+X+XX+X+X+@=<8usffzz",
"OOOOOOOOOOOOOOOO++++++++++X++++++++X++++++++++++++X++++++++X+++++X++++X++X++X++++++++XXX++@=<8usfkfz",
"OOOOOOOOOOOOOOOOX+X+++X++++++++++X++++X+X+X+++X++++++++++X++++X+++++X++X+++++X+X+X+++X+X++#=<8usfkzz",
"OOOOOOOOOOOOOOOO+++++X++X+X+X++X+++X+X+++++++X++X+X+X++X+++X+X+++X+X+++++X+X+++++++X++X+++#-28usfffz",
"OOOOOOOOOOOOOOOO+++++XX+OOOOOOOO+++X+X+X+X+++++++X+X+++++X++++++X++++++X+++++++++++X+X+++++=<8usfffk",
"OOOOOOOOOOOOOOOOX+X+++++OOOOOOOOX+++++++++X+X++X+++++X+X++X+X++X+++XX++++X+XX+X+X++++XXXX+#=28usffzk",
"OOOOOOOOOOOOOOOO++++++++OOOOOOOO+X+X+X+++++++++X+X++X+++++++X+++X+X++X+XX++++++X+X+X+XX+++#=<8usfzzz",
"OOOOOOOOOOOOOOOOX++XX+X+OOOOOOOO++++++X++X++X++++++X+++XX+X++++X++++++++++++X+++++++++XX++#=<8usfffk",
"OOOOOOOOOOOOOOOO++X+OOOOOOOOOOOO+XX++++XX+++X++++++X++X+++++++++X++++X+XX+X++X+X++X++XX+++#=<8usffzz",
"OOOOOOOOOOOOOOOO++++OOOOOOOOOOOO+++++X+++++X++X+X+++++++X+X++X+X+++X+++++++++++++X++X+X+X+@=<8usfzfk",
"OOOOOOO@OOOOOOOO++OOOOOOOOOOOOOO++++++++X+X+++++X++X+X+++++X+++++++X+X+++XX++XX+++++++XX++@=28usfzzz",
"OOOOOOOOOOOOOOOO@OOOOOOOOOOOOOOO+X+X+X+X++++X+X+++++++X+X+++X++XX+++++X++++++++++X+X+XX+X+@=<8usfffk",
"OOOOOOOOOOOOOOOOOOOOOOOOOOOOOOOOX++X+X+X++++++X+++++++X+X++++++X+X+X++++X+X+X++++++++X+X++#=<8usffzz",
"OOOOOOOOOOOOOOOOOOOOOOOOOOOOOOOO++++++++X+X+X++++X+X+X+++++XX+++++++X++X+++++++XX+X+++X+++#=<8usfkfz",
"OOOOOOOOOOOOOOOOOOOOOOOOOOOOOOOO+++++X+++++X++X+X+++++++X+X++X+X+X++++X+++X+X+X+++X+X+XXX+#=<8usfkzz",
"OOOOOOOOOOOOOOOOOOOOOOOOOOOOOOOO+XX+++X+X+++X++++++X+X++++++++++++X++++++X++++++X++++X+X++#-28usfffz",
"OOOOOOOOOOOOO@OOOOOOOOOOOOOOOOOO++++++X+++X+X++++++X+++XX+X++++XX++XX+X+X++++XX++X+++X++++@=<8usfffk",
"OOOOOOOOOOOOOOOOOOOOOOOOOOOOOOOO+X+X+X+++++++++X+X++X+++++++X+++++++++++++X+++++++X+X+XXX+@=<8usffzk",
"OOOOOOOOOOOOOOOOOOOOOOOOOOO@OOOOX+++++++++X+X+X++++X+X+X++X+X+++X+X+++X++++++++++++++XX+++@=<8usfzzz",
"OOOOOOOOOOOOOOOOOOOOOOOOOOOOOOOO+++X+X+X+X+++++++X+++++++X+++++X+++++X++X+X+X+X+++X+++XX++@=<8usfffk",
"OOO@OOOOOOOOOOOOOOOOOOOOOOOOOOOO+++X+X+++++++XX+X+X+X+X++++X+X+++++++X++X+X+X++XX+++X+X++++=<8usffzz",
"OOOOOOOOOOOOOOOOOOOOOOOOOOOOOOOO+X++++X+X+X++++++++++++++X++++X+X+X+++X++++++++++++X+XXXX+#=28usfzfk",
"OOOOOOOOOOOOOOOOO@OOOOOOOOOOOOOO+X+X++++++++++++++X++++++X+X++++++++++++++X+++++X+X++X+X++#=<0usfzzz",
"OOOOOOOOOOOOOOOOOOOOOOOOOOOOOOOO++++++X+X++XX+X+X++++XX+++++++X++X+XX+X++X+++XX++++++++X++#=<8usfffk",
"OOOOOOOOOOOOOOOOOOOOOOOOOOOOOOOO+X++X+X+++X++++++X+++++++X++X+X+++X++++++X++++++++++X+X++++=<8usffzz",
"OOOOOOOOOOOOOOOOOOOOOOOOOOOOOOOO+++X+++++X++++X+++X+X+X++++X+++++X++++X+++X+X+X++X+X+XXXX+#=<8usfkfz",
"OOOOOOOOOOOOOOOOOOOOOOOOOOOOOOOO+X++++X+++++X++X+++++++X+X++++X+++++X++X+++++++X+X+++X+X++#=<8usfkzz",
"OOOOOOOOOOOOOOOOOOOOOOOOOOOOOOOO+++X+X+++X+X++++X+X+X++++++X+X+++X+X++++X+X+X++++++X+++X++#-<8usfffz",
"++++++++X+X++X+X++X+X+X++++++++++X++++++OOOOOOOOOOOOOOOOOOOOOOOO++X++X+++++X+X++X+++X+X+X+@=<8usfkfz",
"+X+X++X+++++++++X++++++++X+X++X+++X+X++XOOOOOOOOOOOOOOOOOOOOOOOO+X++++X+X++++++++++X+XXX++@=<8usffzz",
"X+++X++X+++++X++++X+++X+X+++X++X++++X+++OOOOOOOOOOOOOOOOOOOOOOOO++++++++X++++X++X+X++X+X++@=<0usfffz",
"+++X+++++XX+++X+X++++X+++++X++++X+X++++XOOOOOOOOOOOOOOOOOOOOOOOO+X+XX+X++++X++X+++++++X+++@=<8usfkzz",
"X++X+X+X+++++++++X++++++X++X+X+X++++++++OOOOOOOOOOOOOOOOOOOOOOOO++X+++++++X++++X++++X+X++++=<8usffzz",
"+++++++++X+XX+X+++X+X+X+++++++++X+X++X+XOOOOOOOOOOOOOOOOOOOOOOOO+X++X+X++X+++X+++X+X+XXX++@=<8usffkz",
"+X+X+X+++++++++++++++++X+X+X+X+++++X++++OOOOOOOOOOOOOOOOOOOOOOOO+++++++X+++++X+X+X+++X+XX+==<8usfffz",
"++++++X+X++X+X+XX+X+X+++++++++X+X+++X++XOOOOOOOOOOOOOOOOOOOOOOOO+X++X++++X+X+++++++X+++X+++-28usffzz",
"+X+++++++X++X+++++++X+X+X++++++X+X++++++++++OOOO++X+X+X+OOOOOO@+X++++++X+++++++++++X+X++X++=28usffzz",
"++X++X+X+++++++X+++X+++++++X+X++++X+X++X+X+XOOOOX+++++++OOOOOO+++++X+X++++X+X+X+X++++XXX++==<8usfzfz",
"++++X++++X++X+X+X+X+++X+X++X+++++++++++XX+++OOOO++X+++X+OOOO++++X+X++++XX++X+++X+X+XX+X++++=<8usfzfz",
"X+X++++X++X++++++++++X+++++++X+X+X++X++++++XOOOOX++++X++OOOO+X+++++++X++++++X+++++++++XX++@=<8usffzz",
"+++++++++X+XX+X+X++X+++X+++++X++X+++X+++++OOOOOO+X+++++++X+XX+X++++++X+XX+X+X++X+XX++XX+X++=<8usfzfz",
"X+X++X+X++++++++++++X+++X+X++++X+++X++X++XOOOOOO++X+X+X+++++++++X+X+++++++++++++++++X+X+++==<8usffzz",
"+++X+++++XX+++X++++++X+X+++X+X++X+X++++++OOOOOOO+++++++X+X++++X++++X+X++++X+X+X+++++++XXX++=<8usfffz",
"X+++X+X++++++X+++XX+++++X++++++X++++X+X++XOOOOOOX+X+X++++++X+X++X++++++X+X++++++X++X+XX+++@=<8usffzf",
"++X+X+++++X++++++++++XX+++++++X++++++++++X+X++++++X+X+++++X++++++X+X++++X+X+X+++X+X++X+X++@=<8usffzz",
"+++++++X+X+++XX+X+X++++++X+X+X++X+X+X+X++++++X+X+++++++X+X+++XX+++++X++++++++++X++++++X+++@=<8usfzfz",
"++X++++X+++++++++++X++++X++++++++++X++X++X++X+++++X++++X+++++++++XX++X+X++X+X++X++X+X+XXX++=<8usfkzz",
"+X++X++++X+XX+X+X+++X++X+++X+X+X++++X+++++X++++X+X++X++++X+XX+X++++++++++X++++++X++++X+X++=-28usffzf",
"X++++X+++++++X++++X++++++++X++++X+X+X++++++X++X+X++++X+++++++X++X+++X++XX++++X+++X+++X++X+@=<8usffzz",
"+++X++X++X+X++X++X+++X+X+X++X++++++++++XX++++X+++++X++X++X+X++X++++X++++++X+++X+++X++XXX++@=28usfkfz",
"X+X+++++X+++++++++++X++++X+X+X+X++X+X+X+X+++++++X+X+++++X+++++++X+X+++++X+X++++++++++XX+++@=<8usfkzz",
"++++X+X++++X++X++X+X+++++++++++++X+++++++++X+X++++++X+X++++X++X++++++XX+++++X+X+X+X+++XX++@=<8usfffz",
"++++++++X++++++X+X+X+++X++++++++X++++++X+X+X+++X++++++++X++++++X++X++X++X+X++X+X++++X+XX+++=<8usfffk",
"+X+X++X+++X+X+++++++X++++X+X++X+++X+X+++++++X++++X+X++X+++X+X++++X++++X+++++++++X++X+XX+X+@-28usffzk",
"X+++X++XX++++X+XX+X++X+XX+++X++XX++++X+XX+X++X+XX+++X++XX++++X+X++++++++++X++X+++X+++++X++@=<8usfzzk",
"+++X++++++X++++++++++++++++X++++++X++++++++++++++++X++++++X++++++X+XX+X++X++++X+++++XX+XX+==<8usffzf",
"X++X+X+XX+X+++++X++++X+XX++X+X+XX+X+++++X++++X+XX++X+X+XX+X+++++++X+++++++++++++++++++XX+++=28usffzz",
"++++++++++++X++X+++X++++++++++++++++X++X+++X++++++++++++++++X++X+X++X+X++X+XX+X++X+X+XX+X+@-<8usfzzf",
"+X+X+X++++X+X+++X+X++X+++X+X+X++++X+X+++X+X++X+++X+X+X++++X+X++++++++++X++++++++X++++++X++@-<8usffzf",
"++++++X+X++++++X++++++X+++++++X+X++++++X++++++X+++++++X+X++++++X+X++X+++X+X+X++X++++XX+XX+=-<0ufffzz",
"+X++++++X++++++X+X+++++++X+++++++X+X++++X+X+X++++++X+X+++X+X++++X+++X++X+++++X+++++++X+X++==<8usffzf",
"++X++X+X+++X+X++++X+X+X+++X++X+X++++X++X+++++++X+X++++X+++++X++X+++X++++X+X+++X+X++XX+X+X+@=<8usffzz",
"++++X+++X++X++++++++++++++++X++++X+++X++++X+X+X++++X+++++X+++X++X+X++X+X++++++++X++++XX+++@=<8usfzfz",
"X+X++++X+++++X+XX+X+X++XX+X++++X++X++++++X+++++++X++X+X+++X++++++++++++++X+XX+X++++X+X+XX+@=<8usffzz",
"+++++++++++++X++++++X+++++++++++X++XX+X+X++++X++++++++X+X++XX+X+X+X++++X++X+++++++X++X+X++==<8usffzf",
"X+X++X+XX+X++++XX++X+++XX+X++X+X++++++++++X+++X++X+X++++++++++++++++X++++X++X+X++X++++X+X++=<8usfzzz",
"+++X+++++++X+X+++X++X+X++++X++++X+X+++++++++++++X+++++X+X+X+++++++X++X+X+++++++X++++X+XX++@=<8usfffk",
"X+++X+X+X++++++X++++++++X+++X+X++++++XX+X+X+X+X++++X+X+++++++XX++X+++++++X+X+++++X+X+X+XX+@=<8usffzk",
"++X+X+++++++++X+++++++++++++X+X++++++X++X+X+X++X+++X+X+X+X++++++++++++X++++X+X+XX+X++X+X++@=<8usffzk",
"+++++++X+X+X+X++X+X+X+X++++X++++X+X+++X+++++++++X+++++++++X+X+X++X+X+X++X+++++++++++++X++++=<8usfkzk",
"++X++++XX++++++++++X++X+X+X+++X+++++++++++X++++++X+X+XX++++++++X+++++++++X+X+XX+++X+X+XXX+O=<8usffkz",
"+X++X++++++X+X+X++++X++++++++X+++X+XX+X++X+++XX+++++++++++X+X+++X+X++X+X++++++++X++++X+X++==<8usfkfz",
"X++++X+++++X++++X+X+X+++X++X+++X++X++++++++++++++XX+++X+X+++X++++++X+++++XX+++X++X+++X++++@=<8usffzf",
"+++X++X++X++X++++++++++X++++X++++X++X+X++XX+X+X++++++X+++++X++X+X++++++X+++++X++++X++XXX++@=<8usffzz",
"X+X++++++X+X+X+X++X+X+X++++++X+X+++++++X+++++++X++++++++X+X+X++++X+XX+X++++++++++++++XX+X++=<8usfzfz",
"++++X+X++++++++++X+++++++XX++++++X+X++++X+X+X+++X++X+X+X++++++X+++++++++X++X+X+XX+X+++XX++=-28usffzz",
"X++X+X+X++++++++X+X++++++XX++++++X+X+++X++X+++X+++++++++++++X+X+++++X+X+X+X++X+X+X+++XXX++@=<8usffzf",
"+++++++++X+X+X+X++++X+X++++++X+X++++X++++++++X+++X+XX+X+X+X+++++X+X+++++++++++++++X++X+X+++=<8usfzzz",
"+++++X++X+++X++++X+X+++X++++X++++XX++X+X++X+++++X++++++X++X+++X++++X++X+++X++X++++++X++XX+O=<8usfffz",
"+XX+++X++++X++++++++X++++X+X+++X+++++++++X+++X+X++++X+++X++++X++X+++X++++X++++X++X++++X+++==<8usffzz",
"+X+++X++X++XX++XX+++X++++X++++X+++X++X++X+++X+++X++X++++++X+++X+++X+++X++X+++X++X++X+XXX++@=<8usfzzz",
"X++X+XX++XX+++X++XX++XX+X+XXX++XX++XX+X++XX++XX++XX+X+XXX++XX++XX++XX++XX++X+XX++X+X+X+X++O=<8ssfffz",
"XXXXX++XX++XXXXXXX+XXX+X+XX++XX++XX++XXXXX++XX++X++X+XX++XX++XX++XX++XX+XXXXX++XXX++X+ X +@=<8usfkzz",
"++X++XX+XX+X+X+++XX++XX+X++XX+XXX+XX+X+XX+XXX+XXXX+XXX+XX+XXX+XXX+XXX+XX++X++XXXX+XXXXXX +@=<8usfzzz",
"X+++++X+++++X++++X+XX++++XOO++++++X++X++X+X+X+X+++++X+X+X+X+X++++X+X+X++++X+X+++X++++ X+++O-<8usffzz",
"++OO++++OO++++OO+++++++OOOOOOO++++++++++++++++++++++++++++++++++++++++++++++++++++++++++++@=28usffkf",
"O=O@@OO=O@=@O=O@O=O=O==O@=O@O=O@@@+=@@@@@@=+@@=+O@=O@OO=@=O=O=O@@@=+=@+@@@+=+=+@+=@@+@+@+===<8ussdff",
"-======================-===========-=====-===---====-======--==============================<888uuiss",
"2<<<<<<2<<<<<<<<<<<<<<<2<<<<<<<<<<<2<2<<<2<<<<<2<2<<<2<<<<<2<<<<<<<<<<<<<<<<<<<<<<<<2<<<<2<22888u8u8",
"888888888888888888888888888888088888888888888888888888888888808888888888888888888888888088888888<8<8",
"uuuuuuuuuuuuuuuuuuuuuuuuuuuuuuuuuuuuuuuuuuuuuuuuuuuuuuuuuuuuuuuuuuuuuuuuuuuuuuuuuuuuuiuuuuu888<<<-<-",
"ssssssssssssssssssssssssssssssssssssssssssssssssssssssssssssssssssssssssssssssssssssssssssuu88<==@=@",
"ffffffffffffffffffffffffffffffffffffffffffffffffffffffffffffffffffffffffffffffffffffffffffss88<=+@++",
"fffkzffzffzffkkfffzffkzffkkfffzfkffkzffzffzffffzffzffzzffffzzffzffzfzffzffzffkkfffzffzzfkfssu2==++X+",
"zfzzzfzfzfzfzfzffzzzzfzfzfzffzzzzfzzzfzfzfzffzzzfzfkzfzfzfzzzfzfzfkfzfzfzfzfzfzffzzfzzzkzffs88-=++X ",
"zkkkzfzzzzzzzzzzkkkfzzzkzzzzkkkfzkkkzfzzzzzzzzfzzzzzzkzzzkkkzfzzzzzzzfzzzzzzzzzzkkzkzzzzzffsu<<=++  "
};
