/* XPM */
static char *background[] = {
/* columns rows colors chars-per-pixel */
"15 15 3 1 ",
"  c #422445",
". c #5A265E",
"X c white",
/* pixels */
"              .",
"              .",
"              .",
"              .",
"              .",
"              .",
"              .",
"              .",
"              .",
"              .",
"              .",
"              .",
"              .",
"              .",
".............. "
};
