/* XPM */
static char *wall100[] = {
/* columns rows colors chars-per-pixel */
"100 100 29 1 ",
"  c #0E1014",
". c #111117",
"X c #15121B",
"o c #19141E",
"O c #1D1522",
"+ c #211626",
"@ c #221827",
"# c #25172A",
"$ c #28172D",
"% c #25192A",
"& c #291A2E",
"* c #2D1B32",
"= c #311D35",
"- c #351D39",
"; c #391D3E",
": c #37203A",
"> c #3A213E",
", c #3D1D42",
"< c #3E2241",
"1 c #411F46",
"2 c #431F48",
"3 c #422445",
"4 c #462449",
"5 c #4A244D",
"6 c #4E2451",
"7 c #522555",
"8 c #562659",
"9 c #59265D",
"0 c #5C2660",
/* pixels */
"009009000000000009000000000000900000973>*#OOOO-,58000000000000000900000900000090000009009085<:$Oo.  ",
"909099090999900909090090090909000000973>*@OOO$=,28000000008000080000000009090909090000000985<:&Oo.  ",
"999999999999999999999999999999990000875>*@OoO$=,27900000080008089999909000809999999000009976<=%OX.  ",
"999999999999999999998999999899990009873>*OOoO#=,27890008808080808999898988989998990899009876<=&OX   ",
"888888888888888888888888888888880808753;*OOoO%=>28789988888888887888888788888888888888898863>&%oX.  ",
"77777877777777877777777777777877787775<-*OOOO%*:26788888777787777777777777777787777788887763>:%@X.  ",
"77676677767767666767777777667777776664<-&Oooo@&:,5677766776666667777777777777777777677777633:=%oXX  ",
"55555655555555656555555555565555566653,=&OooO@&:,556566655556666555555665555553573573575553<:&%oX.  ",
"3555555555554555553555535445444555555<:=%@XXo@%:>3555555555355545535555336366366363673755533:%@oX.  ",
"3333333333343333353333533434444453433>:=%OoXX@%=><333355335333333533335333333333333335333333:%@XX   ",
"3333333333333333333333333333333343333>:*%OoXo@@=>>3335333333333333333333333333333333333533<::%@@X.  ",
"333333333333333333333333333333333433>>=*%OOXo@%=>>3333333333333333333333333333333333333333<:&@@XX.  ",
"3333333333333333333333333333333334333<:&%OoXo@%=>>33353333333333333333333333<3333333333333>::%@.X.  ",
"3333334333433333533333333343333434333<:*%OOXo@%=>>33333333333343333333333333443333333353333::%@@X.  ",
"3353333433333333333333333333433344333<:*%OXoo@%=><334343433433333353333333535<4<33335333333:&%@XX   ",
"333333333333333333333333333333333433<>:*@OXXoO%=><33433333333333333333333333<4<<3333333533>::%@XXX  ",
"333>333><<<<<3<<<3<<<<3<<<<<<<<<<<<<<<-*OOoXoO$*:>>333>3333>333><<<<<<<<<<<<<<<<<<<<<<<<<<<:&&OXX.  ",
">>>>>>>><<<<><>>><>><>><<<<<<<>><<<<-<*&OOXooO#$=:>>>>>>>>>>>>>><,<<<<<<<<<<:<<<<><<<<<<<<:-&#OOX   ",
"::::::::==--=:::::::::::==-==:=:<=:==*&OOOo.XO+#&=::::::::::=:::,==,==:<=:==::::::::::=:==-&&OO.X.  ",
"**%&&&&&&*********&*&*&&**$****&****&%OOOo...oo#%%&=&&&&=&&&&&=&*$$$&&&&&*****&**&&*&**&&*&%OOOX    ",
"@@@@%@@@#######$%%%@@%@@########%%%@OOOOXX..XXXo@@@@@@@@@@@@@@@@#+#+####%%%%%%%%%%@@@@@@%@O@OXX..   ",
"OOOoOOOOOOooOOO+OOOOOOOOOooooOOOOOOOOOOOX... XXXooo@o@@o@OOOOOOOOOOOOOOoOOOOOOOOOOOOOOOOOOOOoX..    ",
"oooooooooXoOXoXXooooooooooooooXoooXooXXXXX..XXXXXoooooooXooXooooOXXOXXooooXoOXXoXoXXXOOXXOXXXXX.X. .",
"ooooooooooXXXXXXXXX.XooooooXoooXOXXOoooXXoXXXXXXooXooooooooooXooXOXXOXooXXXXXXXXXoXoXOXOXXOXXoXooXXo",
"O@@OOOOOOOOOXXXX..XXXOOOOOOO+O+OOOOOOOOOoOO+O+OOOOOoOOO+OOOOOOOOOOOO+OoooXX. XXXOOOOOOOOOOOOOOOOOOOO",
"%%%%$$$$$$##+XXX.XXoO+##$$$$$$$$%%$$$$$$#+$$$$$$$$$#$$$$&%&%&%%&#O$$$##o+oXXXXXXO@O#&&$*&&&&&%$$$$$$",
"-=::----,*$$$+oXXXoO#$*-*,,*,$$,----*,,*,,,,,,$,,$,,,$,*::=:---=,,,,,,$##OoXXXXO@&*&,,,=:=:>-,=,=,,,",
"<<>>,1,,,,,,$#+XXoOO$*,,,11,2,,,<<,,,,,,,,,,,,,,,,,,,,,,>><<,3,,,,,,,,,,,#OXXXo#&=<<,,,,<<<<<<,,,,,,",
"56555566222,,$+oXoO&=,,562262626722266262262226262622262626265522662622,$$#XooO#,,,22656636555735526",
"777878878862,$#OooO&-,56898888788888777887979888878878888887778878888872,$#Ooo#$*,667887887787767788",
"888888998862,*$OoOO*;26789889888888888888888998888888988888888888889986,,$#OoO+*,,678898888888888888",
"888889990862,$#OoO@*;,6899998888888888888898888988888888888889889899886,,,#OoO+$,,679999888888888888",
"778888877763>=@ooO@&:357788877778877877777777887877788888778878778888753<=@OoO@&:<578888887777887888",
"77777787765<>&@@oo@&:336777777777777777767777777777777575777777777788533>=@ooo@%:<567777787767876677",
"37553766653>:%@oXoO%=>33665666662655565555555755773776665555773756665733:&@Ooo@%=<<56665737536675555",
"33553355533>:%@ooo@%&>33335553442525444455553335333333363535333335563333=%@oXoO%=:<<4445533536334444",
"3333533333<>=%@oXoO%&><336333433333344<433533335333333333333333353533<<>=%@XXoO%&><334533333333344<4",
"3333333533<>=%@XooO@&:>3335343333333<44<33333333333333333333333333333<<:=%@oXoO%=><<333333333333<43<",
"3333353333<>=%@oXoO%&:333333333333333333333333333333333333333333333333<:=%@oooO%&:<<3335333333333333",
"333333333<>>&%@oooO@&:333533333333333333333333333333333333333333333533<:=%OoXoO%&:<33333333333333333",
"3333333333<>&%@XXoO%&:><3535343353333433333333333333333333333333343433<:=$OoXoo#&:>>3333333333333333",
"3333333333<::%@oXoO%&>><33334<3433333333343333333333333333333333344333<>=$OoXoO#=:><3333333333333333",
"3333333333>:&%@oXoO%&:><44<<3333333333<<333333<<3333333333333333434<33<:*$OOXoO#%:>33333333333333333",
"333333333>>:=%@XXoO%&:><<<<<<<<<<<<<<<<<<3<<<<<>3>3>33<333333333<<<<<<<:*#OOXoO+&:><<<333333<<<<<<<3",
">>>>3:>>>>:=&@OXXXo@%=::<<:<,,*,<<::>>>><>:::>>>:>:>>>:>::::>::::<:::<:=$OOOXoo+%=::>>:><>>>>>>><:<<",
":&::::::==&&%OoX.XoO%%&&--==*-*,==:::====:=:=:==:&&:&::&::::::::==:==***#OOO XoO@%&=&:::&:=====:====",
"%%%%%%%%%%%@@oXX.XXoO@%&&&&&&&$$&&&&&&&&&%&%%%%%%%%&%%%%@%%%%@@%%&&%&&%OOO..XXXXO@@@%&&%&&&%&&&%&&&&",
"@@@@@@@@@@@OoX.....Xoo@@O&OOOOO#@@@@@@%@@@@@@@@@%@@@@@@@@@@@@@@@@@@@@@OOXO..  XXoO@@@@@@@@@@@@@@@@&&",
"XoOooOooOOooXX......XXooooOoOOOOoOOOOOOoOoOoooOooo@oOOOOXOOOOOXOOoOOooooX... .X.XoooOooOoOOOoOOO@OOO",
"XoXooooooXXoXXXXX.XXXXooooooXXXXoXXXXXXXoXooooooooXXXO.OXXXO.OXXoooXoooo.oXXXXXXXXooooooooXXoXXoXXX.",
"ooOoOoOOoOOooOoooooXooooooooXOXXoXX.X.XXXoOOooOOooooOOOOOOOOOOOOOooooooooXooXoOXooooooooooOXXX.X....",
"@@@@#OOOOOO#OO#O++#+#+++#++#+#+OoXX.X.XoXOOO#OOO@@@@OOOOOOOOOOOOO#OOO#O#+#++++####O#O#O##OOOooo.....",
"%&&*&*$$$$$$*$$$$$*$&&&*$$$$$,###oXX.XXoO#$$$$$$%&&&&=&&$$$$$#$$$$$$&&**$*$$**$$$#$$$$$$$#$#OOo...  ",
":>:<::,,,,,,,,,,,,,,,-<<,,,,,,,$$#XXXXoO#$*,,,,,:>><::<<,,,,,,,,,,,,<::>,,,,,,,,,,,,,,,,,,,$$#Oo..  ",
"3<3<<<2,,,,22,,,,25,<<<3,,2,,,,,*$#XXoo+$,,,,54<3333<<4<,,,22,,,,22<<<33,22,,,2,,,,,,22,,,,,$$OO..  ",
"5576757667667677676667677677226,,$#oXo+#,,,66677367566662766766666756766628766767666678786,,,*OOX.  ",
"88888878888877877777787777778772,$#oXX#$:<5770888888788888888887878877888878878898788888876<<=#OX   ",
"88888889888889989999799700000872,*#OOO#$<458808088888888808888888988898888888888889889998874,-$OX   ",
"88888888888888889788979970008764,*#OoO#$><67808888888888888888888888888888888888898888898874,*$OX.  ",
"7777777787778777777777777778777<,$#Ooo#$><47777887777877877777787777877777787778777788878754,&#OX.  ",
"6666666657776876666666766777764<,$#OoO#$=>3667776666666666676666766766666667666667676777763<:*@OX.. ",
"5555555555452262554655554555544<,$+oXoO#=><455555564555555552655555355565554565554552655654<=&@OX.  ",
"443444454454442454353443444454<<$$+oXoO#=:333355443444454444454435553344444433454<44445233<<=&@oX.. ",
"333344<<4<<4<44<33333344<444<<<,*$+oXoO#=><33333533344<<4<4<4<4<33333333333344<<4444<45,4<<:=&@oX.  ",
"3333333333333<33333333333333333:=%OOOXO@&:<<335333333333333333333333333333333<333333353333<:=&@oX.  ",
"333333333333343333333333335353<:=&OOXOO%*=<<3333333333333333333333333333333333333333333533<:&&@oX.  ",
"334333333333334333333333533333<:=OOOXOO%==<<33433333333333333333333333333333433333333333333:=&@oX.. ",
"3333333335333333433333333353333:=%OOXXO@&:<<35343353533333333533343343333433333335333355333>=%@oX.  ",
"33333333<3334<<<33<33333333333<:*&OOooO#=:<<<34333333333<333<4<<333<33333334333<3333333333<:&%@oX.  ",
"<3<<3333<<<3<4<<3<<<33<<333333>:&&OOXoO#&=><<33<333<3333<<4<<<4<33<<<333<<<33<3<3<<<33<<33>:=&@oX.  ",
"<<><<><<<<<<<<<<<<<<<<<><3<<<>::&#OOXoOO&=:><<<<<<<<><3<<<<<<<<<<<<<><<<<<<<<<<<<<<><<<<<>>=&%OoX.  ",
">>::::>>:::::<:<>>>:>>::::>::::&$OOXXXOO&&=:<:>::::::::::::::<:::>::::>>:::::<:=>>::>>>>:::=%@OX.   ",
"==&=*****=&====*====*=**&===&&&&+OoX.XXOO&&***-*&=&==&==*=**==*===&==***=*===*===*&=&=**&=&%%@X...  ",
"%%%%%%&&%%@&%%%&%&%@&%%%%%%@&%%@OoX...XXOOOO$$$$%%%%%%%%%%%%%O%%%%%%&O&%&&&%%&&&%&&@&%&%%%@@@oX..   ",
"O@@OOOOOO@@OOOOO@@@@@OOO@@O@@@OOoXX....XOOOOOOOO@@@O@OO@O@@OOOOO@O@OOOOO@@@OO@OO@OO@@OO@@@ooXXX.    ",
"ooooXOOXXoooOOOOoXoOooXOooooXooXXX.....X.OXOOOooXoooXOXooXOXOXOOooooXOOOXoooXOOOoXOooXXOoooXXXX.....",
"ooXXXOOOoXXOXXXXXXXXOXXXoXoXXoXoXXXXXXXXO.XOooooXoXXooXooXXOXXOXXoXXoXOXXXXXX.XXXXXXXXOXooooXXXX.X..",
"OoOoOOOOOOOOO.X...XXXOOOOOOOoOOoooOOOoOOOOOOOooOoOOOOOOOOOOOOOOOOOOOOOOOXXXXX..XXOOOOOOOoOoo@o@oOOOO",
"%@%%@%%O@%@OOO....XXOO@@@%%%%@@@++#O##$###OO###$@@%@@@%@%@@%OO%#@%%@%O%OOOX...XXO@@@%%@%@%%%%%@@%&%%",
"&==*=**==**%OOO.XXXOO%&=&==&==&:,**,****==*=****=&==*=&=&=*===*=&===***%%OXX.XOOO%&***==*==&==&=*===",
",,,,,,,,,,,-*OOXXXOO#$,,,,,,,,,,<<><<<,,,,,,,,,,,,,,,,,<,,<<<<<<,,,,,,-,&%OXXXo@&&-,,,,,,,,,,,,,<<<<",
"222224445,,,=%OOXOO%$,,,,562,22253454444445,52,2252,,5<4,5<4344322225,,,-OOOXXO@*<,<44255,2222625335",
"77767777765,<&%OOOO&,,2687777788777767767677675777677767776777768877765,<$@OoO@&,,466777767667777767",
"88878088887<,*%OOOO&,,67899888888778888888888880888870887088888888998862,*@OOO@&,,678088088888888888",
"888908008862<=@OXO#*,<68880888888888888888070707888888880070888889998774,*&OoO@*,,670080808888888888",
"888888888872>=@OXOO&,,57707088888788888888878777888888887777878889980754,&OOXO@&,,577708788888888888",
"77677777775,:&@OOOO&-<4777787877777777777777777777778778877777777877775,,*$Ooo@&*,477887777677777677",
"56567577665,:&@O.OO&=,<657666266656666565656565756655655556566566666674<-*OOXo@%=,457566656656566656",
"54545555653<:%@oXoO%=<<45555555565555355556445452545555533555555455655<<=%%ooo@%=>335556544544555555",
"5<44444433<>=&@oooO%*><<4445333<33335333333443445<44<45<3333333344444<<<:%@oXo@%&><335444444444<3333",
"<4<435<33<>>=%@oXoO%*:<<<44433333333333333333333<4<4<4<433333333<444<<<<=@@oooO@=:<<<343<4<433<43333",
"4<4<<3333<>:=%OoooO@&:><4<4<3333<3333333333<3333<44<3<4<33333333<4<4<<<:=@Oo.oO@&:<33333<4<43<4<33<3",
"<3<3333333<>=%OoXoO@&:><3333333333<33333<3<3<3333<3<<3<33<3<<33333334<<<=@@oXoO@&::<<43333<333333333",
"333333333<<>&%@oooO@&=><33333<3<3<333<3<3333333<3333333333333333<3334<<:=%@oXoO%&:><333333333<3<<333",
"33<3<3333<>:=%@oXoO@*:<<33334<333333<333<3<3<3333<33333<3<3<33334335<<<=&%@oooO@&:><33433<<333333333",
"334<4353<<>>=%OOXoO%=:<<3343333333<333333333333<343<33333333333333333<<:=%OoXo@%&:<<333433333<333<33",
"333333453<<:=%@XooO@&:<<333333333333333<333333333333333333333333334333<:=%OoXoO@&>><<3333333333<3333",
"<333333333<:=%@oXoO%%:><3333333333333333333<3333333333333333333>334333<>=&@oooO@%:><3333333333333333",
"<33333333<<>=%OoXoO@&:><3533333333333333333333<3333333>33333333333333<<:&&@oXoO%=:<<3333333333333333",
"3333334433<>=%@oXoO%=:>>333533333333333333333333>333333333>3333333343<<<=%OoXoO%&:><33533333333333<3"
};
