/* XPM */
static char *wall[] = {
/* columns rows colors chars-per-pixel */
"15 15 4 1 ",
"  c #5A265E",
". c #111117",
"X c #422445",
"o c white",
/* pixels */
"      .       .",
"XXXXXX.XXXXXXX.",
"XXXXXX.XXXXXXX.",
"...............",
"  .        .   ",
"XX.XXXXXXXX.XXX",
"XX.XXXXXXXX.XXX",
"...............",
"     .        .",
"XXXXX.XXXXXXXX.",
"XXXXX.XXXXXXXX.",
"...............",
"  .        .   ",
"XX.XXXXXXXX.XXX",
"XX.XXXXXXXX.XXX"
};
