/* XPM */
static char *wall50[] = {
/* columns rows colors chars-per-pixel */
"50 50 29 1 ",
"  c #0E1014",
". c #101116",
"X c #15131B",
"o c #19141E",
"O c #1D1522",
"+ c #211626",
"@ c #221827",
"# c #241629",
"$ c #28172D",
"% c #25192A",
"& c #2A1A2F",
"* c #2D1B31",
"= c #311C35",
"- c #351E39",
"; c #391C3E",
": c #36203A",
"> c #3A213E",
", c #3D1E42",
"< c #3E2241",
"1 c #411F46",
"2 c #441F48",
"3 c #422445",
"4 c #462449",
"5 c #4A234D",
"6 c #4E2452",
"7 c #522556",
"8 c #552659",
"9 c #5A265E",
"0 c #5D2761",
/* pixels */
"90990990999909990083$O+;6000990999099099090097>#. ",
"99999999999999990971$o+-6909999999999998999096-#. ",
"7787787878788887886,%oO=2898878877887788788884:@o ",
"6666665666666566765-%oO:2666665666666666666763*O. ",
"444444444444444444<:OoO*<45444444444444434544<*@. ",
"333333333333333343>:@XO&>33333333333333333343>&OX ",
"3333333333333334333*OXO&>34333333333333333333>*O..",
"333333333333333343<:@oO&>33333333333333333343>*@. ",
"<><<,,<<<<<<,,<<,1,=+Xo$><<<<>>3,,,<<<<<<><><:$OX ",
":**:======:===*===$#o.X#%:*::*:*========:*::*&@o. ",
"@OOOO+++@@OOO+O+++OoX..oOO@OOOOO+O+O+O@OOOO@@Oo.  ",
"ooooooXXXXXooooXoooXX.X.XoooooooXooXoooXooXooXo..X",
"@@##+OoX.XOO+#++++#+###O++++@@++O#+OXXXXo@+#@+####",
";-;;,=#oXO$-,,;,;;;;,,,;,;,;>>;;;,,=#XXO&-;;>>;;;,",
"676662=Oo#;5676667666666667667666862=Oo+;567766767",
"889985;+o%,7898888889888888888889985;+O#,789888788",
"777774:@o%>6877777777777877777777874=@o%>677777777",
"54555<*Oo@:3555526554554545554545553*Oo@-355555555",
"33353>*ooO*>34333333333333333333433>*Oo@:344333333",
"33333>*oX@:333333333333333333333333>&OXO*<33333333",
"33343>*Oo@:>34333333333333333333343<$O.#*<33333333",
"33333>&oXO=>313<<333<33<333>3333343-$OX#*<3333<33<",
":::::*@oXo&:;-=;-:::::::::::::::--;=#o.O&:::::::::",
"@%%%@@oX.XOO####%%$%%%@@@@%@@%%@##++oX oO@@@@%%%$%",
"oooooo..X.XooooXooooXOoOoooooooooooXXX.oXoooooOXoo",
"OOOOOOOOOOOOOO#OXX.XooOOOOOOOOOOOOOOoOooOOOOOoXX..",
":=======-======$+XXo#===:==*===========;=====$+X. ",
"3455555526255551=OX+-1553455555255255555555551=OX ",
"8888888888888986;+o$,6898888888888888888888986-+. ",
"8887888888878882=OX$,7888788878888878887888875-+X ",
"5656665565566661=OX#:4666565565665566565566663=OX ",
"334332223433441,=OX+=<44343434223433434422224>*O. ",
"333333333333333>&OX@:>34333333333333333333333>*@X ",
"333333333333333>&OoO:<34333333333333333333333>*o. ",
"333333333333333>*Oo+*>3333333<333333333333333>*OX ",
">>>>>>>>>>>:>>>:%oXO&:>>>>>>>>>>>>>>>>>>>>>>>:&o. ",
"&&&&&&**&&&&***%OX.o+%*$**&**&&*&&&******&**&%OX  ",
"oOOOOoOOOOOOOoooX...ooOOoooOoooOooOoooOoooooooX.  ",
"ooooooX.XXooooooOoooooOoooooooooooooo.XXoooooooooo",
"$$*$&%OX.o+%&&&&$$$*$$$$*&%&&&&$*&&%Oo.oO&&*%*&&$*",
"1112,;$OXO*,22113122111111131113121,$OoO:>32111232",
"778875-Oo%;6887778777778777777787872-+o%;688777778",
"888986=@O%,7988888888888888888888986=+o%<788888888",
"666764:Oo@;5776766666766677667667765=Oo@-577767666",
"44544<*OX@:345444444444444443444454<*Oo@=345444434",
"33343>&OX@*<33333333333333333333333>*OoO=<33333333",
"<3333:&OoO*<3333<33<3<<3<33<3<<3333>&oXO=<33<33<33",
"33333>&OX@=>33333333333333333333333:&OoO:<333333<3",
"33333>$OoO:<333333333<3333<333<3333>*OoO*<33333333",
"33333>&OX@*<33333333333333333333333>$Oo@:>33333333"
};
