/* XPM */
static char *collectible50[] = {
/* columns rows colors chars-per-pixel */
"50 50 119 2 ",
"   c #5D2654",
".  c #5D2956",
"X  c #5E2E59",
"o  c #5E325C",
"O  c #5E385F",
"+  c #632656",
"@  c #612957",
"#  c #672758",
"$  c #642B59",
"%  c #6B2C5D",
"&  c #62325D",
"*  c #5E3D63",
"=  c #722E61",
"-  c #6B3361",
";  c #623A62",
":  c #6D3A67",
">  c #733465",
",  c #783567",
"<  c #783668",
"1  c #753A69",
"2  c #5E4065",
"3  c #5E4D6D",
"4  c #5F5371",
"5  c #5E5975",
"6  c #5F5F79",
"7  c #634167",
"8  c #6A426A",
"9  c #604C6D",
"0  c #6D4B71",
"q  c #774170",
"w  c #7D4272",
"e  c #7C4D78",
"r  c #615372",
"t  c #605D78",
"y  c #6D5A7D",
"u  c #73557A",
"i  c #5F637C",
"p  c #61637C",
"a  c #626B82",
"s  c #7A6788",
"d  c #746D8C",
"f  c #796B8A",
"g  c #647187",
"h  c #607789",
"j  c #617C8C",
"k  c #797792",
"l  c #757A94",
"z  c #787D96",
"x  c #61808F",
"c  c #618492",
"v  c #628895",
"b  c #6D8698",
"n  c #618E98",
"m  c #778399",
"M  c #76899D",
"N  c #62939C",
"B  c #758EA0",
"V  c #629DA2",
"C  c #6B99A7",
"Z  c #7592A2",
"A  c #739AA7",
"S  c #739CA8",
"D  c #62A4A7",
"F  c #62A6A8",
"G  c #6FA4AD",
"H  c #62A9AB",
"J  c #6BAEB3",
"K  c #72A9B0",
"L  c #63B4B2",
"P  c #64BAB5",
"I  c #64BFB9",
"U  c #6FBEBD",
"Y  c #71B2B6",
"T  c #70B4B8",
"R  c #70B8B9",
"E  c #64C1BA",
"W  c #67C7C3",
"Q  c #6CC7C2",
"!  c #64CCC3",
"~  c #6BCEC5",
"^  c #64D2C5",
"/  c #64D2C9",
"(  c #6AD6CB",
")  c #65DFCE",
"_  c #65DDD0",
"`  c #6BDED2",
"'  c #65E0CE",
"]  c #65E5D2",
"[  c #69E3D4",
"{  c #65EBD6",
"}  c #68E9D6",
"|  c #65EED8",
" . c #68ECD8",
".. c #66F6DD",
"X. c #68F0DE",
"o. c #66F9DF",
"O. c #66EEE0",
"+. c #66F4E0",
"@. c #65FFE4",
"#. c #6BFFE3",
"$. c #66FFEA",
"%. c #73FFE4",
"&. c #7EFFE4",
"*. c #86FFE5",
"=. c #8DFFE5",
"-. c #94FFE5",
";. c #9CFFE6",
":. c #A9FFE7",
">. c #AFFFEB",
",. c #B3FFE7",
"<. c #B1FFE9",
"1. c #C0FFE8",
"2. c #CCFFE8",
"3. c #D2FFE9",
"4. c #DEFFEB",
"5. c #E1FFEA",
"6. c #EEFFEA",
"7. c #F1FFEA",
"8. c #422445",
/* pixels */
"8.8.8.8.8.8.8.8.8.8.8.8.8.8.8.8.8.8.8.8.8.8.8.8.8.8.8.8.8.8.8.8.8.8.8.8.8.8.8.8.8.8.8.8.8.8.8.8.8.8.",
"8.8.8.8.8.8.8.8.8.8.8.8.8.8.8.8.8.8.8.8.8.8.8.8.8.8.8.8.8.8.8.8.8.8.8.8.8.8.8.8.8.8.8.8.8.8.8.8.8.8.",
"8.8.8.8.8.8.8.8.8.8.8.8.8.8.8.8.8.8.8.8.8.8.8.8.8.8.8.8.8.8.8.8.8.8.8.8.8.8.8.8.8.8.8.8.8.8.8.8.8.8.",
"8.8.8.8.8.8.8.8.8.8.8.8.8.8.8.8.8.8.8.8.8.8.8.8.8.8.8.8.8.8.8.8.8.8.8.8.8.8.8.8.8.8.8.8.8.8.8.8.8.8.",
"8.8.8.8.8.8.8.8.8.8.8.8.8.8.8.8.8.8.8.8.8.8.8.8.8.8.8.8.8.8.8.8.8.8.8.8.8.8.8.8.8.8.8.8.8.8.8.8.8.8.",
"8.8.8.8.8.8.8.8.8.8.8.8.8.8.8.8.8.8.8.8.8.8.8.8.8.8.8.8.8.8.8.8.8.8.8.8.8.8.8.8.8.8.8.8.8.8.8.8.8.8.",
"8.8.8.8.8.8.8.8.8.8.8.8.8.8.8.8.8.8.8.8.8.8.8.8.8.8.8.8.8.8.8.8.8.8.8.8.8.8.8.8.8.8.8.8.8.8.8.8.8.8.",
"8.8.8.8.8.8.8.8.8.8.8.8.8.8.8.8.8.8.8.8.@.@.@.@.@.@.@.@.@.@.8.8.8.8.8.8.8.8.8.8.8.8.8.8.8.8.8.8.8.8.",
"8.8.8.8.8.8.8.8.8.8.8.8.8.8.8.8.8.8.8.8.%.%.%.%.#.%.%.%.%.%.8.8.8.8.8.8.8.8.8.8.8.8.8.8.8.8.8.8.8.8.",
"8.8.8.8.8.8.8.8.8.8.8.8.8.8.8.8.8.8.8.*.-.;.;.;.;.;.;.;.;.-.*.8.8.8.8.8.8.8.8.8.8.8.8.8.8.8.8.8.8.8.",
"8.8.8.8.8.8.8.8.8.8.8.8.8.8.8.8.8.8.%.-.>.2.3.3.2.3.2.3.2.,.-.%.8.8.8.8.8.8.8.8.8.8.8.8.8.8.8.8.8.8.",
"8.8.8.8.8.8.8.8.8.8.8.8.8.8.8.8.8.@.%.;.,.4.6.7.6.6.7.7.5.,.-.%.@.8.8.8.8.8.8.8.8.8.8.8.8.8.8.8.8.8.",
"8.8.8.8.8.8.8.8.8.8.8.8.8.8.8.8.8.@.#.=.,.3.5.5.4.4.5.4.3.,.-.%.@.8.8.8.8.8.8.8.8.8.8.8.8.8.8.8.8.8.",
"8.8.8.8.8.8.8.8.8.8.8.8.8.8.8.8.8.@.#.&.-.:.,.,.>.>.,.>.>.-.&.#.@.8.8.8.8.8.8.8.8.8.8.8.8.8.8.8.8.8.",
"8.8.8.8.8.8.8.8.8.8.8.8.8.8.8.8.8.@.#.#.%.&.&.*.&.&.&.*.&.%.#.#.@.8.8.8.8.8.8.8.8.8.8.8.8.8.8.8.8.8.",
"8.8.8.8.8.8.8.8.8.8.8.8.8.8.8.8.8.@.@.@.@.@...{ [ [  ...@.@.@.@.@.8.8.8.8.8.8.8.8.8.8.8.8.8.8.8.8.8.",
"8.8.8.8.8.8.8.8.8.8.8.8.8.8.8.8.8.8.@.@.@.@.] W J J W ] $.@.@.@.8.8.8.8.8.8.8.8.8.8.8.8.8.8.8.8.8.8.",
"8.8.8.8.8.8.8.8.8.8.8.8.8.8.8.8.8.8.8.$.@.@./ G l l G ( @.$.$.8.8.8.8.8.8.8.8.8.8.8.8.8.8.8.8.8.8.8.",
"8.8.8.8.8.8.8.8.8.8.8.8.8.8.8.8.8.8.8.8.@.+.( A f s Z Q } +.8.8.8.8.8.8.8.8.8.8.8.8.8.8.8.8.8.8.8.8.",
"8.8.8.8.8.8.8.8.8.8.8.8.8.8.8.8.8.8.8.8.$.@.` T B m Z K R U 8.8.8.8.8.8.8.8.8.8.8.8.8.8.8.8.8.8.8.8.",
"8.8.8.8.8.8.8.8.8.8.8.8.8.8.8.8.8.8.8.8.$.@.X.` Q Y S B z k 8.8.8.8.8.8.8.8.8.8.8.8.8.8.8.8.8.8.8.8.",
"8.8.8.8.8.8.8.8.8.8.8.8.8.8.8.8.8.8.8.8.@.+.....} ~ S f e w 8.8.8.8.8.8.8.8.8.8.8.8.8.8.8.8.8.8.8.8.",
"8.8.8.8.8.8.8.8.8.8.8.8.8.8.8.8.8.8.8._ ^ ! ^ ^ / P b u 1 1 d 8.8.8.8.8.8.8.8.8.8.8.8.8.8.8.8.8.8.8.",
"8.8.8.8.8.8.8.8.8.8.8.8.8.8.8.8.8.8.O.! F N n N n c t 8 : s C [ 8.8.8.8.8.8.8.8.8.8.8.8.8.8.8.8.8.8.",
"8.8.8.8.8.8.8.8.8.8.8.8.8.8.8.8.8.$.| E v t 3 3 r 9 * ; ; g L { @.8.8.8.8.8.8.8.8.8.8.8.8.8.8.8.8.8.",
"8.8.8.8.8.8.8.8.8.8.8.8.8.8.8.8.| ] ^ F a 2 X @ & $ $ X 2 g F ! ] | 8.8.8.8.8.8.8.8.8.8.8.8.8.8.8.8.",
"8.8.8.8.8.8.8.8.8.8.8.8.8.8.8.] ! L V j 5 o @ # % % % X * 5 j D L ! ] 8.8.8.8.8.8.8.8.8.8.8.8.8.8.8.",
"8.8.8.8.8.8.8.8.8.8.8.8.8.8.@.[ L c i 3 * o $ % > = = $ O 2 3 i v L ' @.8.8.8.8.8.8.8.8.8.8.8.8.8.8.",
"8.8.8.8.8.8.8.8.8.8.8.8.8.$.@.' H p * o $ & - > < < - - X X X * p H ' @.$.8.8.8.8.8.8.8.8.8.8.8.8.8.",
"8.8.8.8.8.8.8.8.8.8.8.8.8.$.@.) D i o + $ - - : > > - & o .   o p D ) @.$.8.8.8.8.8.8.8.8.8.8.8.8.8.",
"8.8.8.8.8.8.8.8.8.8.8.8.8.$.@.) D i o # % > > > - - & & o .   o p D _ @.$.8.8.8.8.8.8.8.8.8.8.8.8.8.",
"8.8.8.8.8.8.8.8.8.8.8.8.8.$.@.' D i O % = < < - & o o X o .   * p D [ @.$.8.8.8.8.8.8.8.8.8.8.8.8.8.",
"8.8.8.8.8.8.8.8.8.8.8.8.8.$.@.) D i O # = > > - & o & & & $ @ O p D ) @.$.8.8.8.8.8.8.8.8.8.8.8.8.8.",
"8.8.8.8.8.8.8.8.8.8.8.8.8.$.@.) D i o + % - & & & & & - > % + & 6 D ) @.$.8.8.8.8.8.8.8.8.8.8.8.8.8.",
"8.8.8.8.8.8.8.8.8.8.8.8.8.$.@.' D i * $ $ & & o & & - > , = % ; p F ) @.$.8.8.8.8.8.8.8.8.8.8.8.8.8.",
"8.8.8.8.8.8.8.8.8.8.8.8.8.$.@.[ L x 4 2 O o X X $ & - > , : 8 r x L ' @.$.8.8.8.8.8.8.8.8.8.8.8.8.8.",
"8.8.8.8.8.8.8.8.8.8.8.8.8.$.#.| ^ H v p 3 o .   . @ $ % > 0 a b H ^  .#.$.8.8.8.8.8.8.8.8.8.8.8.8.8.",
"8.8.8.8.8.8.8.8.8.8.8.8.8.@.@.o.{ ) E N i *     X X @ # : p N E ' | o.@.@.8.8.8.8.8.8.8.8.8.8.8.8.8.",
"8.8.8.8.8.8.8.8.8.8.8.8.8.@.@.@.@.@.] I j 3 ; 2 2 2 2 2 4 x P { o.@.@.@.@.8.8.8.8.8.8.8.8.8.8.8.8.8.",
"8.8.8.8.8.8.8.8.8.8.8.8.8.8.@.#.$.$.../ H c h h h h h h c H ^ +.$.@.@.@.8.8.8.8.8.8.8.8.8.8.8.8.8.8.",
"8.8.8.8.8.8.8.8.8.8.8.8.8.8.8.8.@.$.@.] / E P P P I P P E ^ ] @.$.$.8.8.8.8.8.8.8.8.8.8.8.8.8.8.8.8.",
"8.8.8.8.8.8.8.8.8.8.8.8.8.8.8.8.8.@.@.....| {  .{ { { { X.X.o.@.@.8.8.8.8.8.8.8.8.8.8.8.8.8.8.8.8.8.",
"8.8.8.8.8.8.8.8.8.8.8.8.8.8.8.8.8.#.@.@.@.$.@.$.@.$.@.$.@.@.@.@.#.8.8.8.8.8.8.8.8.8.8.8.8.8.8.8.8.8.",
"8.8.8.8.8.8.8.8.8.8.8.8.8.8.8.8.8.8.8.8.8.8.8.8.8.8.8.8.8.8.8.8.8.8.8.8.8.8.8.8.8.8.8.8.8.8.8.8.8.8.",
"8.8.8.8.8.8.8.8.8.8.8.8.8.8.8.8.8.8.8.8.8.8.8.8.8.8.8.8.8.8.8.8.8.8.8.8.8.8.8.8.8.8.8.8.8.8.8.8.8.8.",
"8.8.8.8.8.8.8.8.8.8.8.8.8.8.8.8.8.8.8.8.8.8.8.8.8.8.8.8.8.8.8.8.8.8.8.8.8.8.8.8.8.8.8.8.8.8.8.8.8.8.",
"8.8.8.8.8.8.8.8.8.8.8.8.8.8.8.8.8.8.8.8.8.8.8.8.8.8.8.8.8.8.8.8.8.8.8.8.8.8.8.8.8.8.8.8.8.8.8.8.8.8.",
"8.8.8.8.8.8.8.8.8.8.8.8.8.8.8.8.8.8.8.8.8.8.8.8.8.8.8.8.8.8.8.8.8.8.8.8.8.8.8.8.8.8.8.8.8.8.8.8.8.8.",
"8.8.8.8.8.8.8.8.8.8.8.8.8.8.8.8.8.8.8.8.8.8.8.8.8.8.8.8.8.8.8.8.8.8.8.8.8.8.8.8.8.8.8.8.8.8.8.8.8.8.",
"8.8.8.8.8.8.8.8.8.8.8.8.8.8.8.8.8.8.8.8.8.8.8.8.8.8.8.8.8.8.8.8.8.8.8.8.8.8.8.8.8.8.8.8.8.8.8.8.8.8."
};
