/* XPM */
static char *collectible[] = {
/* columns rows colors chars-per-pixel */
"15 15 5 1 ",
"  c #5E315B",
". c #80366B",
"X c #66FFE3",
"o c #FFFFEB",
"O c None",
/* pixels */
"OOOOOOOOOOOOOOO",
"OOOOOOOOOOOOOOO",
"OOOOOOXXXOOOOOO",
"OOOOOXoooXOOOOO",
"OOOOOXXXXXOOOOO",
"OOOOOOX.XOOOOOO",
"OOOOOOXX.OOOOOO",
"OOOOOX   XOOOOO",
"OOOOX  .  XOOOO",
"OOOOX .   XOOOO",
"OOOOX   . XOOOO",
"OOOOXX   XXOOOO",
"OOOOOXXXXXOOOOO",
"OOOOOOOOOOOOOOO",
"OOOOOOOOOOOOOOO"
};
