/* XPM */
static char *player50[] = {
/* columns rows colors chars-per-pixel */
"50 50 90 1 ",
"  c #14141A",
". c #1A1A1F",
"X c #1C1C20",
"o c #222225",
"O c #26262A",
"+ c #28282F",
"@ c #2B2B34",
"# c #2D2D38",
"$ c #3B3B3E",
"% c #393947",
"& c #3E3E4B",
"* c #434344",
"= c #42424E",
"- c #4C4C4B",
"; c #50504F",
": c #464652",
"> c #4E4E5A",
", c #535352",
"< c #585857",
"1 c #53535D",
"2 c #5C5C5A",
"3 c #61615E",
"4 c #565663",
"5 c #5A5A64",
"6 c #5E5E6A",
"7 c #646461",
"8 c #62626A",
"9 c #6A6A6F",
"0 c #666672",
"q c #6A6A72",
"w c #727276",
"e c #77777C",
"r c #767683",
"t c #7B7B85",
"y c #818181",
"u c #8A8A83",
"i c #8F8F88",
"p c #93938B",
"a c #868693",
"s c #8E8E99",
"d c #949495",
"f c #9D9D95",
"g c #9E9E9F",
"h c #A1A198",
"j c #A8A89D",
"k c #9696A4",
"l c #9A9AA0",
"z c #9C9CAA",
"x c #A2A2A5",
"c c #ABABA4",
"v c #A4A4AB",
"b c #ACACA9",
"n c #B2B2AF",
"m c #BABAAE",
"M c #ACACB5",
"N c #AFAFBC",
"B c #BABAB2",
"V c #B4B4BC",
"C c #B8B8BC",
"Z c #C1C1B3",
"A c #C4C4BA",
"S c #CBCBBE",
"D c #B1B1C1",
"F c #BBBBC5",
"G c #BCBCCD",
"H c #BFBFD0",
"J c #C4C4C0",
"K c #CCCCC2",
"L c #C2C2CE",
"P c #D1D1C2",
"I c #D3D3C9",
"U c #DCDCCC",
"Y c #C2C2D1",
"T c #CBCBD5",
"R c #CDCDD8",
"E c #D2D2D5",
"W c #DBDBD5",
"Q c #D4D4D9",
"! c #DCDCDC",
"~ c #E6E6D5",
"^ c #E2E2DE",
"/ c #EBEBDA",
"( c #E5E5E0",
") c #EBEBE3",
"_ c #F3F3E5",
"` c #F8F8E5",
"' c #F5F5E8",
"] c #FEFEEB",
"[ c #FFFFF2",
"{ c #422445",
/* pixels */
"{{{{{{{{{{{{{{{{{{{{{{{{{{{{{{{{{{{{{{{{{{{{{{{{{{",
"{{{{{{{{{{{{{{{{{{{{{{{{{{{{{{{{{{{{{{{{{{{{{{{{{{",
"{{{{{{{{{{{{{{{{{{{{{{{{{{{{{{{{{{{{{{{{{{{{{{{{{{",
"{{{{{{{{{{{{{{{{{{{{{{{{{{{{{{{{{{{{{{{{{{{{{{{{{{",
"{{{{{{{{{{{{{{{{{{{{{{{{{{{{{{{{{{{{{{{{{{{{{{{{{{",
"{{{{{{{{{{{{{{{{{{{{{{{{{{{{{{{{{{{{{{{{{{{{{{{{{{",
"{{{{{{{{{{{{{{{{{{{{{{{{{{{{{{{{{{{{{{{{{{{{{{{{{{",
"{{{{{{{{{{{{{{{{{{{{{{{{{{{{{{{{{{{{{{{{{{{{{{{{{{",
"{{{{{{{{{{{{{{{{{{{{{{{{{{{{{{{{{{{{{{{{{{{{{{{{{{",
"{{{{{{{{{{{{{{{{{{{{{{{{{{{{{{{{{{{{{{{{{{{{{{{{{{",
"{{{{{{{{{{{{{{{{{{{{{{{{{{{{{{{{{{{{{{{{{{{{{{{{{{",
"{{{{{{{{{{{{{{{{{{{{{{]]]]]]]]]]]]]{{{{{{{{{{{{{{{",
"{{{{{{{{{{{{{{{{{{{{{{]]]]]]]]]]]]]{{{{{{{{{{{{{{{",
"{{{{{{{{{{{{{{{{{{]]]][]]]]]]]]]]][[[]]{{{{{{{{{{{",
"{{{{{{{{{{{{{{{{{]]]]_~/`]]]]]]]]]_~/']{{{{{{{{{{{",
"{{{{{{{{{{{{{{{{]]][[Auf~[[]]]]][]KpfU[[{{{{{{{{{{",
"{{{{{{{{{{{{{{{]]]`]/d$;m_]]]]]]]/f$,m_]]{{{{{{{{{",
"{{{{{{{{{{{{{{Q_]'!Bu;.O7hU]]]]`Sp,XO2hU]]{{{{{{{{",
"{{{{{{{{{{{{{HR('(Lt$.  o2Z][][_f*.  o<m][]{{{{{{{",
"{{{{{{{{{{{{{YTQ()El5# o,iI][[['n8# X-uP][]{{{{{{{",
"{{{{{{{{{{{{{YYTR()QM0+-c~`]]]]]WMq@*c~`]]]{{{{{{{",
"{{{{{{{{{{{{{YYGT!))!x8qcKSAAAAAE!v8eK[[]_){{{{{{{",
"{{{{{{{{{{{{{YYYGTE(_EMseq99qq8wb/WMV/[['^E{{{{{{{",
"{{{{{{{{{{{{{YYYYHY!(!Va4&&&&&%:yAEE^']](QT{{{{{{{",
"{{{{{{{{{{{{{{{YYHYREMr5:&&&=&&=1wxW']_!QR{{{{{{{{",
"{{{{{{{{{{{{{{{YYYYYGz0>:=======:4d~[[_QY{{{{{{{{{",
"{{{{{{{{{{{{{{{{{YYYHNkr1%&&&&%=6aC)]]]^{{{{{{{{{{",
"{{{{{{{{{{{{{{{{{YYTTYYzq>>>4116aF(']]'{{{{{{{{{{{",
"{{{{{{{{{{{{{{{{YHYR^!TDkaaslcccA^''_(()][{{{{{{{{",
"{{{{{{{{{{{{{{{YYYT!_(RLHGGYW___'`]])QQ(]]]{{{{{{{",
"{{{{{{{{{{{{{{YHTQ!^^^^!TYYT!)'][]_(!^!(^^(){{{{{{",
"{{{{{{{{{{{])QYHT!'^E!'(RYYGYR(]]](Q!(_QTYR^]]{{{{",
"{{{{{{{{{{{(^EYHT!(^!!((!ETTR!^(_]_!!((QGGY!(({{{{",
"{{{{{{{{{{{RR{{{{TR^_(QQ)(RT^_!Q^]]'(QR{{{{TRR{{{{",
"{{{{{{{{{{{LH{{{{GYQ(!TR()!!((^Q^(']_QG{{{{{L{{{{{",
"{{{{{{{{{{{{{{{{{HYTRTYTE!(_!Q()^Q^']{{{{{{{{{{{{{",
"{{{{{{{{{{{{{{{{{{YYYYGHYT((!Q()!TQ_]{{{{{{{{{{{{{",
"{{{{{{{{{{{{{{{{{{{{{YYYHTT!()^QRYT{{{{{{{{{{{{{{{",
"{{{{{{{{{{{{{{{{{{{{{{YYYYHT(_!YGYY{{{{{{{{{{{{{{{",
"{{{{{{{{{{{{{{{{{{{{{{{YYHGTQQRLY{{{{{{{{{{{{{{{{{",
"{{{{{{{{{{{{{{{{{{{{{{{{YYYYYTYYY{{{{{{{{{{{{{{{{{",
"{{{{{{{{{{{{{{{{{{{{{{{{{{{{{{H{{{{{{{{{{{{{{{{{{{",
"{{{{{{{{{{{{{{{{{{{{{{{{{{{{{{{{{{{{{{{{{{{{{{{{{{",
"{{{{{{{{{{{{{{{{{{{{{{{{{{{{{{{{{{{{{{{{{{{{{{{{{{",
"{{{{{{{{{{{{{{{{{{{{{{{{{{{{{{{{{{{{{{{{{{{{{{{{{{",
"{{{{{{{{{{{{{{{{{{{{{{{{{{{{{{{{{{{{{{{{{{{{{{{{{{",
"{{{{{{{{{{{{{{{{{{{{{{{{{{{{{{{{{{{{{{{{{{{{{{{{{{",
"{{{{{{{{{{{{{{{{{{{{{{{{{{{{{{{{{{{{{{{{{{{{{{{{{{",
"{{{{{{{{{{{{{{{{{{{{{{{{{{{{{{{{{{{{{{{{{{{{{{{{{{",
"{{{{{{{{{{{{{{{{{{{{{{{{{{{{{{{{{{{{{{{{{{{{{{{{{{",
};
