/* XPM */
static char *player[] = {
/* columns rows colors chars-per-pixel */
"23 17 5 1 ",
"  c #111117",
". c #43434F",
"X c #C2C2D1",
"o c #FFFFEB",
"O c None",
/* pixels */
"OOOOOOOOOOooooooOOOOOOO",
"OOOOOOOOooooooooooOOOOO",
"OOOOOOOooo ooooo ooOOOO",
"OOOOOOXoX   ooo   ooOOO",
"OOOOOOXXoX ooooX oooOOO",
"OOOOOOXXXoX....oXooXOOO",
"OOOOOOOXXX......ooXOOOO",
"OOOOOOOOXXX....XooOOOOO",
"OOOOOOOXXoXXXooooXooOOO",
"OOOOOoXXoXoXXXooXoXXoOO",
"OOOOOXOOXoXoXoXooXOOXOO",
"OOOOOOOOXXXXoXoXoOOOOOO",
"OOOOOOOOOOXXXoXXOOOOOOO",
"OOOOOOOOOOOXXXXOOOOOOOO",
"OOOOOOOOOOOOOOOOOOOOOOO",
"OOOOOOOOOOOOOOOOOOOOOOO",
"OOOOOOOOOOOOOOOOOOOOOOO"
};
