/* XPM */
static char *exit50[] = {
/* columns rows colors chars-per-pixel */
"50 50 186 2 ",
"   c #351A1C",
".  c #292B2D",
"X  c #3E272B",
"o  c #2B2E33",
"O  c #2F3033",
"+  c #33363B",
"@  c #43201F",
"#  c #452323",
"$  c #472829",
"%  c #5D2C29",
"&  c #592823",
"*  c #5F302D",
"=  c #4E2D36",
"-  c #673732",
";  c #353940",
":  c #363552",
">  c #5C3C52",
",  c #633947",
"<  c #3D424A",
"1  c #3A4568",
"2  c #3C4970",
"3  c #44484F",
"4  c #5F494F",
"5  c #4D545F",
"6  c #51575F",
"7  c #7A4751",
"8  c #784D5A",
"9  c #774D5A",
"0  c #4E4561",
"q  c #414B6D",
"w  c #464967",
"e  c #4F546F",
"r  c #545D6A",
"t  c #585A62",
"y  c #424E71",
"u  c #465172",
"i  c #4A5476",
"p  c #4A5779",
"a  c #4D597B",
"s  c #515D7D",
"d  c #515672",
"f  c #615A67",
"g  c #665467",
"h  c #785464",
"j  c #635F78",
"k  c #62666B",
"l  c #636B7D",
"z  c #67617D",
"x  c #7B6C7E",
"c  c #75747E",
"v  c #7B737E",
"b  c #8E251D",
"n  c #94261B",
"m  c #9B2B1D",
"M  c #AD321B",
"N  c #832C2A",
"B  c #962E23",
"V  c #983429",
"C  c #8F3832",
"Z  c #A43220",
"A  c #A63D22",
"S  c #B23921",
"D  c #BC3E22",
"F  c #B23F2B",
"G  c #B14225",
"H  c #A8462F",
"J  c #EC7D1E",
"K  c #E67C0E",
"L  c #C54424",
"P  c #C94925",
"I  c #C54926",
"U  c #CD532A",
"Y  c #D1582C",
"T  c #DA7525",
"R  c #D67528",
"E  c #D66331",
"W  c #D86531",
"Q  c #DC6D35",
"!  c #DF7237",
"~  c #DE7339",
"^  c #E17538",
"/  c #8E4142",
"(  c #915040",
")  c #844F57",
"_  c #88585E",
"`  c #BE7944",
"'  c #AB615C",
"]  c #B96648",
"[  c #905D60",
"{  c #96696A",
"}  c #936871",
"|  c #916772",
" . c #9B7369",
".. c #AC7678",
"X. c #C05A40",
"o. c #FD9109",
"O. c #ED811B",
"+. c #EB9618",
"@. c #C58D3E",
"#. c #DD9F37",
"$. c #C2882E",
"%. c #EFA43F",
"&. c #EABD2B",
"*. c #DCA54D",
"=. c #E6AF57",
"-. c #546384",
";. c #596584",
":. c #5D6A8A",
">. c #5E6F90",
",. c #636E8C",
"<. c #6F6D86",
"1. c #65708E",
"2. c #6D768A",
"3. c #7D7C86",
"4. c #707783",
"5. c #657392",
"6. c #687694",
"7. c #6D7C9A",
"8. c #677898",
"9. c #717F9C",
"0. c #767D94",
"q. c #817987",
"w. c #6E809F",
"e. c #74829E",
"r. c #7B8298",
"t. c #6F81A0",
"y. c #7584A1",
"u. c #7A87A2",
"i. c #7C8AA5",
"p. c #7E8DA8",
"a. c #7288AC",
"s. c #7E90AD",
"d. c #778FB3",
"f. c #8B8D99",
"g. c #908E9C",
"h. c #8F959E",
"j. c #A2908D",
"k. c #A69797",
"l. c #B2979F",
"z. c #8B8DA1",
"x. c #808FA9",
"c. c #878FA6",
"v. c #8492AA",
"b. c #8C97A8",
"n. c #9398AB",
"m. c #8C9BB4",
"M. c #8999B4",
"N. c #929EB5",
"B. c #AC9DA9",
"V. c #8EA0BA",
"C. c #96A2B6",
"Z. c #93A3BB",
"A. c #98A6BD",
"S. c #9AA8BF",
"D. c #ABACBA",
"F. c #AAB1BD",
"G. c #BEA4A7",
"H. c #C19D9D",
"J. c #C7A09A",
"K. c #9BAAC1",
"L. c #A2AEC3",
"P. c #A7B2C6",
"I. c #A4B2C8",
"U. c #AAB5C9",
"Y. c #ADB9CC",
"T. c #B4BCCB",
"R. c #B8B7C2",
"E. c #ADBCD0",
"W. c #B3BFD1",
"Q. c #B6C2D4",
"!. c #B9C3D3",
"~. c #C6CEDC",
"^. c #C8CFDD",
"/. c #C9D1DE",
"(. c #CCD4E1",
"). c #D1D8E4",
"_. c #DCE1E9",
"`. c #E5E9EF",
"'. c #E2E6ED",
"]. c #E7EBF1",
"[. c #EDF0F4",
"{. c #F1F3F6",
"}. c #F5F6F9",
"|. c #FEFFFF",
" X c #F7F8FA",
".X c #422445",
/* pixels */
".X.X.X.X.X.X.X.X.X.X.X.X.X.X.X.X.X.X.X.X.X.X.X.X.X.X.X.X.X.X.X.X.X.X.X.X.X.X.X.X.X.X.X.X.X.X.X.X.X.X",
".X.X.X.X.X.X.X.X.X.X.X.X.X.X.X.X.X.X^ ^ ~ ^ .X.X.X.X.X.X.X.X.X.X.X.X.X.X.X.X.X.X.X.X.X.X.X.X.X.X.X.X",
".X.X.X.X.X.X.X.X.X.X.X.X.X.X.X.X.X^ ^ ^ ~ ^ ^ .X.X.X.X.X.X.X.X.X.X.X.X.X.X.X.X.X.X.X.X.X.X.X.X.X.X.X",
".X.X.X.X.X.X.X.X.X.X.X.X.X.X.X.X^ ! ! ! ~ ~ ~ ~ .X.X.X.X.X.X.X.X.X.X.X.X.X.X.X.X.X.X.X.X.X.X.X.X.X.X",
".X.X.X.X.X.X.X.X.X.X.X.X.X.X.X.X! Y U U G S H } g.V.S.`..X.X.X.X.X.X.X.X.X.X.X.X.X.X.X.X.X.X.X.X.X.X",
".X.X.X.X.X.X.X.X.X.X.X.X.X.X.XQ W P L D n N 8 9.M.Z.U._. X.X.X.X.X.X.X.X.X.X.X.X.X.X.X.X.X.X.X.X.X.X",
".X.X.X.X.X.X.X.X.X.X.X.X.X.X^ Q P I L D B h e.M.Z.I.~.~._.|..X.X.X.X.X.X.X.X.X.X.X.X.X.X.X.X.X.X.X.X",
".X.X.X.X.X.X.X.X.X.X.X.X.X.X^ W I L S V h e.M.Z.Y.!.~.~.(._. X.X.X.X.X.X.X.X.X.X.X.X.X.X.X.X.X.X.X.X",
".X.X.X.X.X.X.X.X.X.X.X.X.X.X^ W I S C 9 1.s.Z.Z.!./.^.~.~.^.`.{..X.X.X.X.X.X.X.X.X.X.X.X.X.X.X.X.X.X",
".X.X.X.X.X.X.X.X.X.X.X.X.X.X^ W L m 7 w.5.p.Z.C.!./.~.~.^.^.^.].|..X.X.X.X.X.X.X.X.X.X.X.X.X.X.X.X.X",
".X.X.X.X.X.X.X.X.X.X.X.X.X^ ~ W L m 7 >.5.p.Z.Z.Q.~.~.~.^.^.^.].|..X.X.X.X.X.X.X.X.X.X.X.X.X.X.X.X.X",
".X.X.X.X.X.X.X.X.X.X.X.X.X~ W I Z n 7 5.5.p.Z.N.4.f.!.r.h.!.v h.~..X.X.X.X.X.X.X.X.X.X.X.X.X.X.X.X.X",
".X.X.X.X.X.X.X.X.X.X.X.X.X! U S b b 8 1.5.e.m.m.; 3 F.; k F.. t Z..X.X.X.X.X.X.X.X.X.X.X.X.X.X.X.X.X",
".X.X.X.X.X.X.X.X.X.X.X.X.X.XI S n .X.X5.5.5.e.m.< < v.O k F.O r K..X.X.X.X.X.X.X.X.X.X.X.X.X.X.X.X.X",
".X.X.X.X.X.X.X.X.X.X.X.X.X.XZ m b .X.X.X5.5.w.e.r.r.b.o 6 b.. r Z..X.X.X.X.X.X.X.X.X.X.X.X.X.X.X.X.X",
".X.X.X.X.X.X.X.X.X.X.X.X.X.Xb b b .X.X.X5.1.>.>.u.m.m.6 l v.6 l .X.X.X.X.X.X.X.X.X.X.X.X.X.X.X.X.X.X",
".X.X.X.X.X.X.X.X.X.X.X.X.X.Xb b .X.X.X.X.X5.5.5.5.y.m.m.m.m.m..X.X.X.X.X.X.X.X.X.X.X.X.X.X.X.X.X.X.X",
".X.X.X.X.X.X.X.X.X.X.X.X.X.Xb b .X.X.X.X.X.X.X5.5.8.7.t.t.t..X.X.X.X.X.X.X.X.X.X.X.X.X.X.X.X.X.X.X.X",
".X.X.X.X.X.X.X.X.X.X.X.X.X.Xb b .X.X.X.X.X.X.X9 9 _ [ _ {  ..X.X.X.X.X.X.X.X.X.X.X.X.X.X.X.X.X.X.X.X",
".X.X.X.X.X.X.X.X.X.X.X.X.Xb b b .X.X.X.X.X.X.XC N V D L Y Q .X.X.X.X.X.X.X.X.X.X.X.X.X.X.X.X.X.X.X.X",
".X.X.X.X.X.X.X.X.X.X.X.X.X.X.X.X.X.X.X.X.X.XC.g.j , B D P P Q .X.X.X.X.X.X.X.X.X.X.X.X.X.X.X.X.X.X.X",
".X.X.X.X.X.X.X.X.X.X.X.X.X.X.X.X.X.X.X.X.Xv.S.Y.8.0 8 V M M G .X.X.X.X.X.X.X.X.X.X.X.X.X.X.X.X.X.X.X",
".X.X.X.X.X.X.X.X.X.X.X.X.X.X.X.X.X.X.X.X6.v.I.U.1.a ,.) C / / { .X.X.X.X.X.X.X.X.X.X.X.X.X.X.X.X.X.X",
".X.X.X.X.X.X.X.X.X.X.X.X.X.X.X.X.X.X.X.X5.A.Y.e.a p 6.c.N.n.n.T.D.- & % % .X.X.X.X.X.X.X.X.X.X.X.X.X",
".X.X.X.X.X.X.X.X.X.X.X.X.X.X.X.X.X.X.X.X5.i.u.s q a 6.M.K.K.m.I.h.= @ $ % .X.X.X.X.X.X.X.X.X.X.X.X.X",
".X.X.X.X.X.X.X.X.X.X.X.X.X.X.X.X.X.X.X.X;.-.s q w a 6.i.M.N.V.K.r.X   # % .X.X.X.X.X.X.X.X.X.X.X.X.X",
".X.X.X.X.X.X.X.X.X.X.X.X.X.X.X.X.X.X.X.Xu i i .Xq a ,.1.a.m.M.K.0.$   # % .X.X.X.X.X.X.X.X.X.X.X.X.X",
".X.X.X.X.X.X.X.X.X.X.X.X.X.X.X.X.X.X.X.X:.7.x..X2 q p ,.7.9.7.9.z X   # % .X.X.X.X.X.X.X.X.X.X.X.X.X",
".X.X.X.X.X.X.X.X.X.X.X.X.X.X.X.X.X.X.X.X6.x.K..X1 2 2 -.-.-.-.p e t f 4 % .X.X.X.X.X.X.X.X.X.X.X.X.X",
".X.X.X.X.X.X.X.X.X.X.X.X.X.X.X.X.X.X.X.X6.i.Z..Xt t 0 0 0 0 0 : w x.Z.q.* .X.X.X.X.X.X.X.X.X.X.X.X.X",
".X.X.X.X.X.X.X.X.X.X.X.X.X.X.X.X.X.X.X.X5.i.A..X&.$.N N N N - = 1 5.M.3.* .X.X.X.X.X.X.X.X.X.X.X.X.X",
".X.X.X.X.X.X.X.X.X.X.X.X.X.X.X.X.X.X.X.Xs :.z N +.#.} | | | | | 6.i.m.z.v z.Z.Z.Z.m.A.~.[..X.X.X.X.X",
".X.X.X.X.X.X.X.X.X.X.X.X.X.X.X.X.X.X.X.Xd a g A K *.C.Z.A.Z.V.Z.Z.N.Z.Z.Z.Z.N.Z.N.Z.U.).{.|..X.X.X.X",
".X.X.X.X.X.X.X.X.X.X.X.X.X.X.X.X.X.X.XR c a.j.T o.*.C.Z.Z.Z.Z.Z.Z.Z.Z.Z.Z.Z.Z.Z.Z.Y.). X.X.X.X.X.X.X",
".X.X.X.X.X.X.X.X.X.X.X.X.X.X.X.X.X.X.XR 3.d.k.J o.=.!.Q.Q.Q.Q.Q.Q.Q.W.W.Q.T.~._._.`.{..X.X.X.X.X.X.X",
".X.X.X.X.X.X.X.X.X.X.X.X.X.X.X.X.X.X.XT x d.j.` +.*.J.F.U.P.l.H.G.l.R.(././.'.|.|.|.|..X.X.X.X.X.X.X",
".X.X.X.X.X.X.X.X.X.X.X.X.X.X.X.X.X.X.X.X.X.X.X2.@.O.X.q.8.<./ F G - .X.X.X.X.X.X.X.X.X.X.X.X.X.X.X.X",
".X.X.X.X.X.X.X.X.X.X.X.X.X.X.X.X.X.X.X.X.X.X.X5.( ] G.r.:.0.B.' n .X.X.X.X.X.X.X.X.X.X.X.X.X.X.X.X.X",
".X.X.X.X.X.X.X.X.X.X.X.X.X.X.X.X.X.X.X.X.X.X:.-., h T.6.-.,.Y....X.X.X.X.X.X.X.X.X.X.X.X.X.X.X.X.X.X",
".X.X.X.X.X.X.X.X.X.X.X.X.X.X.X.X.X.X.X.X.X6.:.i s ;..Xu y a .X.X.X.X.X.X.X.X.X.X.X.X.X.X.X.X.X.X.X.X",
".X.X.X.X.X.X.X.X.X.X.X.X.X.X.X.X.X.X.X.X.X5.,.1.C.!..X:.9.v..X.X.X.X.X.X.X.X.X.X.X.X.X.X.X.X.X.X.X.X",
".X.X.X.X.X.X.X.X.X.X.X.X.X.X.X.X.X.X.X.X.X5.7.x.U..X.X5.p.S..X.X.X.X.X.X.X.X.X.X.X.X.X.X.X.X.X.X.X.X",
".X.X.X.X.X.X.X.X.X.X.X.X.X.X.X.X.X.X.X.X.X;.5.i..X.X.X:.8.i..X.X.X.X.X.X.X.X.X.X.X.X.X.X.X.X.X.X.X.X",
".X.X.X.X.X.X.X.X.X.X.X.X.X.X.X.X.X.X.X.X.Xu i i .X.X.Xu i p .X.X.X.X.X.X.X.X.X.X.X.X.X.X.X.X.X.X.X.X",
".X.X.X.X.X.X.X.X.X.X.X.X.X.X.X.X.X.X.X.X.X-.:.e..X.X.X;.1.e..X.X.X.X.X.X.X.X.X.X.X.X.X.X.X.X.X.X.X.X",
".X.X.X.X.X.X.X.X.X.X.X.X.X.X.X.X.X.X.X.X.X5.7.v.L..X.X5.e.M..X.X.X.X.X.X.X.X.X.X.X.X.X.X.X.X.X.X.X.X",
".X.X.X.X.X.X.X.X.X.X.X.X.X.X.X.X.X.X.X.X.X5.5.6.P.)..X5.5.e.!..X.X.X.X.X.X.X.X.X.X.X.X.X.X.X.X.X.X.X",
".X.X.X.X.X.X.X.X.X.X.X.X.X.X.X.X.X.X.X.X.X.X.X.X.X.X.X.X.X.X.X.X.X.X.X.X.X.X.X.X.X.X.X.X.X.X.X.X.X.X",
".X.X.X.X.X.X.X.X.X.X.X.X.X.X.X.X.X.X.X.X.X.X.X.X.X.X.X.X.X.X.X.X.X.X.X.X.X.X.X.X.X.X.X.X.X.X.X.X.X.X",
".X.X.X.X.X.X.X.X.X.X.X.X.X.X.X.X.X.X.X.X.X.X.X.X.X.X.X.X.X.X.X.X.X.X.X.X.X.X.X.X.X.X.X.X.X.X.X.X.X.X"
};
