/* XPM */
static char *player100[] = {
/* columns rows colors chars-per-pixel */
"100 74 110 2 ",
"   c #15151A",
".  c #19191E",
"X  c #1D1D23",
"o  c #222226",
"O  c #27272A",
"+  c #29292D",
"@  c #2C2C32",
"#  c #2E2E39",
"$  c #333335",
"%  c #3C3C3E",
"&  c #3B3B45",
"*  c #3D3D4A",
"=  c #424243",
"-  c #41414D",
";  c #4C4C4B",
":  c #50504F",
">  c #454551",
",  c #494954",
"<  c #4D4D5A",
"1  c #535353",
"2  c #595957",
"3  c #54545D",
"4  c #5C5C5A",
"5  c #60605E",
"6  c #565661",
"7  c #595963",
"8  c #5D5D6A",
"9  c #646463",
"0  c #686864",
"q  c #64646C",
"w  c #6B6B6B",
"e  c #71716D",
"r  c #676774",
"t  c #6B6B74",
"y  c #6D6D7B",
"u  c #757572",
"i  c #7A7A74",
"p  c #74747D",
"a  c #7C7C7C",
"s  c #82827C",
"d  c #757583",
"f  c #7C7C83",
"g  c #7E7E89",
"h  c #838382",
"j  c #8D8D86",
"k  c #84848C",
"l  c #8C8C8D",
"z  c #91918C",
"x  c #858592",
"c  c #8A8A96",
"v  c #8C8C99",
"b  c #949492",
"n  c #9B9B93",
"m  c #93939E",
"M  c #99999A",
"N  c #A1A197",
"B  c #A4A49C",
"V  c #A8A89E",
"C  c #9494A3",
"Z  c #9B9BA4",
"A  c #9C9CAA",
"S  c #A3A3A4",
"D  c #ACACA4",
"F  c #A3A3AC",
"G  c #ACACAB",
"H  c #B1B1A6",
"J  c #B4B4AC",
"K  c #B9B9AD",
"L  c #A4A4B3",
"P  c #ABABB2",
"I  c #AEAEBC",
"U  c #B4B4B4",
"Y  c #BDBDB3",
"T  c #B1B1BC",
"R  c #BBBBBC",
"E  c #C1C1B6",
"W  c #C4C4BB",
"Q  c #CCCCBE",
"!  c #B4B4C3",
"~  c #BCBCC3",
"^  c #BDBDCD",
"/  c #BFBFD0",
"(  c #C3C3C3",
")  c #CECEC4",
"_  c #C4C4CB",
"`  c #CBCBCC",
"'  c #D2D2C4",
"]  c #D3D3CB",
"[  c #DADACC",
"{  c #C3C3D1",
"}  c #CBCBD5",
"|  c #CECED8",
" . c #D1D1D6",
".. c #DBDBD2",
"X. c #D4D4D9",
"o. c #DCDCDC",
"O. c #E0E0CF",
"+. c #E4E4D4",
"@. c #E8E8D7",
"#. c #E2E2DE",
"$. c #ECECDC",
"%. c #F2F2DF",
"&. c #E5E5E1",
"*. c #EBEBE3",
"=. c #F3F3E5",
"-. c #F9F9E6",
";. c #F5F5E8",
":. c #FEFEEB",
">. c #FFFFF2",
",. c None",
/* pixels */
",.,.,.,.,.,.,.,.,.,.,.,.,.,.,.,.,.,.,.,.,.,.,.,.,.,.,.,.,.,.,.,.,.,.,.,.,.,.,.,.,.,.,.:.:.:.:.:.:.:.:.:.:.:.:.:.:.:.:.:.:.:.:.:.:.:.:.:.:.:.,.,.,.,.,.,.,.,.,.,.,.,.,.,.,.,.,.,.,.,.,.,.,.,.,.,.,.,.,.,.",
",.,.,.,.,.,.,.,.,.,.,.,.,.,.,.,.,.,.,.,.,.,.,.,.,.,.,.,.,.,.,.,.,.,.,.,.,.,.,.,.,.,.,.:.:.:.:.:.:.:.:.:.:.:.:.:.:.:.:.:.:.:.:.:.:.:.:.:.:.:.,.,.,.,.,.,.,.,.,.,.,.,.,.,.,.,.,.,.,.,.,.,.,.,.,.,.,.,.,.,.",
",.,.,.,.,.,.,.,.,.,.,.,.,.,.,.,.,.,.,.,.,.,.,.,.,.,.,.,.,.,.,.,.,.,.,.,.,.,.,.,.,.,.,.:.:.:.:.:.:.:.:.:.:.:.:.:.:.:.:.:.:.:.:.:.:.:.:.:.:.:.,.,.,.,.,.,.,.,.,.,.,.,.,.,.,.,.,.,.,.,.,.,.,.,.,.,.,.,.,.,.",
",.,.,.,.,.,.,.,.,.,.,.,.,.,.,.,.,.,.,.,.,.,.,.,.,.,.,.,.,.,.,.,.,.,.,.,.,.,.,.,.,.,.,.>.:.:.>.:.:.:.:.:.:.:.:.:.:.:.:.:.:.:.:.:.:.:.:.:.:.:.,.,.,.,.,.,.,.,.,.,.,.,.,.,.,.,.,.,.,.,.,.,.,.,.,.,.,.,.,.,.",
",.,.,.,.,.,.,.,.,.,.,.,.,.,.,.,.,.,.,.,.,.,.,.,.,.,.,.,.,.,.,.,.,.,.,.,.,.:.:.:.:.:.:.>.>.>.>.:.:.:.:.:.:.:.:.:.:.:.:.:.:.%.:.:.:.:.:.:.:.>.>.>.>.>.:.:.,.,.,.,.,.,.,.,.,.,.,.,.,.,.,.,.,.,.,.,.,.,.,.,.",
",.,.,.,.,.,.,.,.,.,.,.,.,.,.,.,.,.,.,.,.,.,.,.,.,.,.,.,.,.,.,.,.,.,.,.:.:.:.:.:.:.:.:.:.:.>.:.:.:.:.:.:.:.:.:.:.:.:.:.:.:.:.:.:.:.:.:.:.:.>.>.:.>.>.:.:.:.:.,.,.,.,.,.,.,.,.,.,.,.,.,.,.,.,.,.,.,.,.,.,.",
",.,.,.,.,.,.,.,.,.,.,.,.,.,.,.,.,.,.,.,.,.,.,.,.,.,.,.,.,.,.,.,.,.,.,.:.:.:.:.:.:.:.-.-.=.=.=.-.;.:.:.:.:.:.:.:.:.:.:.:.:.:.:.:.:.:.:.:.:.-.%.%.=.=.:.:.:.:.,.,.,.,.,.,.,.,.,.,.,.,.,.,.,.,.,.,.,.,.,.,.",
",.,.,.,.,.,.,.,.,.,.,.,.,.,.,.,.,.,.,.,.,.,.,.,.,.,.,.,.,.,.,.,.,.,.:.:.:.:.:.:.:.-.%.+.[ ' ' O.%.-.:.:.:.:.:.:.:.:.:.:.:.:.:.:.:.:.:.:.*.@.[ ' ' +.$.=.:.:.>.,.,.,.,.,.,.,.,.,.,.,.,.,.,.,.,.,.,.,.,.,.",
",.,.,.,.,.,.,.,.,.,.,.,.,.,.,.,.,.,.,.,.,.,.,.,.,.,.,.,.,.,.,.,.,.:.:.:.:.:.>.>.>.;.#.W V N V Y ..*.>.>.>.:.:.:.:.:.:.:.:.:.:.:.:.>.>.;.@.) J B D Y [ =.>.>.>.:.,.,.,.,.,.,.,.,.,.,.,.,.,.,.,.,.,.,.,.,.",
",.,.,.,.,.,.,.,.,.,.,.,.,.,.,.,.,.,.,.,.,.,.,.,.,.,.,.,.,.,.,.:.:.:.:.:.:.:.>.>.>.=.' B s w i n W $.>.>.>.:.:.:.%.:.:.:.:.:.:.:.>.:.>.;.[ S h e u n E $.>.>.>.:.:.:.,.,.,.,.,.,.,.,.,.,.,.,.,.,.,.,.,.,.",
",.,.,.,.,.,.,.,.,.,.,.,.,.,.,.,.,.,.,.,.,.,.,.,.,.,.,.,.,.,.,.:.:.:.:.:.:.:.:.>.:.$.E j 2 = : i D O.-.:.:.:.:.:.:.:.:.:.:.:.:.:.:.:.:.%.E j 4 = ; u D [ ;.>.:.:.:.:.,.,.,.,.,.,.,.,.,.,.,.,.,.,.,.,.,.,.",
",.,.,.,.,.,.,.,.,.,.,.,.,.,.,.,.,.,.,.,.,.,.,.,.,.,.,.,.,.,.;.:.:.:.:.;.=.=.=.$.O.Q n w = + $ 4 z E O.$.-.;.:.:.:.:.:.:.:.:.:.:.:.%.O.Q B e = + $ 2 j K [ $.%.%.:.:.:.,.,.,.,.,.,.,.,.,.,.,.,.,.,.,.,.,.",
",.,.,.,.,.,.,.,.,.,.,.,.,.,.,.,.,.,.,.,.,.,.,.,.,.,.,.,.,.&.*.;.:.;.;.;.&.o.' W H n e : + . O = 0 j D W [ %.:.:.>.:.:.:.:.:.:.%.@.Q K N i : + . o % 9 j V Q O.@.-.:.>.:.,.,.,.,.,.,.,.,.,.,.,.,.,.,.,.,.",
",.,.,.,.,.,.,.,.,.,.,.,.,.,.,.,.,.,.,.,.,.,.,.,.,.,.,.,.} o.*.;.;.:.;.&.o.` U M s 5 ; $ o     + = 2 i n E +.%.:.>.:.:.:.:.:.:.%.Q D s w ; $ o   . O % 2 e n E O.-.>.>.:.:.:.,.,.,.,.,.,.,.,.,.,.,.,.,.,.",
",.,.,.,.,.,.,.,.,.,.,.,.,.,.,.,.,.,.,.,.,.,.,.,.,.,.,.{ }  .&.=.:.;.=.&. .~ C p 1 % + X         o $ : i V [ -.>.>.:.:.:.>.:.:.+.E j 5 % + .       . o $ ; i V [ =.:.>.>.:.:.:.,.,.,.,.,.,.,.,.,.,.,.,.,.",
",.,.,.,.,.,.,.,.,.,.,.,.,.,.,.,.,.,.,.,.,.,.,.,.,.,.^ { }  .o.*.=.=.*.#.| T m w - @ X           X + ; u V [ =.:.>.>.:.:.>.:.:.+.K h 1 $ X           . + = e V Q =.:.>.:.:.:.:.,.,.,.,.,.,.,.,.,.,.,.,.,.",
",.,.,.,.,.,.,.,.,.,.,.,.,.,.,.,.,.,.,.,.,.,.,.,.,.,./ { { | o.&.&.*.&.&.X.~ A f 7 & @ X       o $ ; 5 j J +.=.>.>.>.:.>.>.>.>.@.W l 9 & @ X       o $ = 5 s K [ =.>.>.>.:.:.:.,.,.,.,.,.,.,.,.,.,.,.,.,.",
",.,.,.,.,.,.,.,.,.,.,.,.,.,.,.,.,.,.,.,.,.,.,.,.,.,.{ { { }  .X.o.&.&.&.#. .R Z f 8 > # X   o % 2 s n K ' $.:.>.>.>.>.>.>.>.>.*.) G k r , # X   X $ 1 u z D Q @.-.:.:.:.:.:.:.,.,.,.,.,.,.,.,.,.,.,.,.,.",
",.,.,.,.,.,.,.,.,.,.,.,.,.,.,.,.,.,.,.,.,.,.,.,.,.,./ { { { } | X.o.#.&.$.@.X.~ L c r > @ X @ 1 s D Q O.$.-.:.>.>.>.:.:.>.>.>.=.o._ P v y > @ X + ; i V W [ @.=.:.:.:.:.:.:.:.,.,.,.,.,.,.,.,.,.,.,.,.,.",
",.,.,.,.,.,.,.,.,.,.,.,.,.,.,.,.,.,.,.,.,.,.,.,.,.,.{ { { { _ { } | #.*.=.*.&.o._ I c q & @ = 0 N Q @.%.-.=.=.;.;.-.=.-.-.-.=.*.#...} T v r * @ = 0 n ' $.:.:.:.:.:.:.:.:.:.:.,.,.,.,.,.,.,.,.,.,.,.,.,.",
",.,.,.,.,.,.,.,.,.,.,.,.,.,.,.,.,.,.,.,.,.,.,.,.,.,.{ { { { / / { } o.o.*.*.=.&.o._ L f 7 ; 3 u N W [ +.+.[ [ [ [ [ [ [ [ [ [ ] ..o.X.` P f 7 , 2 a J ..:.>.>.>.:.:.-.=.=.=.=.,.,.,.,.,.,.,.,.,.,.,.,.,.",
",.,.,.,.,.,.,.,.,.,.,.,.,.,.,.,.,.,.,.,.,.,.,.,.,.,.{ { { { / / / } | o.&.&.*.*.*.o.~ S k y t h n V J U J D D D D D D D D D D J W  .#.o._ F h t p M W $.>.>.>.>.:.-.=.*.&.&.&.,.,.,.,.,.,.,.,.,.,.,.,.,.",
",.,.,.,.,.,.,.,.,.,.,.,.,.,.,.,.,.,.,.,.,.,.,.,.,.,.{ { / { { / { { } | X.o.&.*.*.*...~ F m c x k j h h h h f f f h s f f a h c D ( #.&...( F m Z U  .$.>.>.>.:.:.=.*.o.X.X. .,.,.,.,.,.,.,.,.,.,.,.,.,.",
",.,.,.,.,.,.,.,.,.,.,.,.,.,.,.,.,.,.,.,.,.,.,.,.,.,.{ / { { { ^ { { { } } | o.&.=.*.$.X._ I A x p q 7 6 6 7 4 6 7 7 7 7 3 3 4 t l J [ *.@.X._ R ~ ` #.=.:.>.:.:.:.=.&.o.| } } ,.,.,.,.,.,.,.,.,.,.,.,.,.",
",.,.,.,.,.,.,.,.,.,.,.,.,.,.,.,.,.,.,.,.,.,.,.,.,.,.{ { { { { { / { / { { }  .&.*.*.*.X._ T A g r 6 > * * * > > > - > * * * > 6 a M W [ #... .}  .o.*.;.:.:.:.;.=.&.o.X.} { / ,.,.,.,.,.,.,.,.,.,.,.,.,.",
",.,.,.,.,.,.,.,.,.,.,.,.,.,.,.,.,.,.,.,.,.,.,.,.,.,.,.{ { { { { { / / / / } | o.&.@..._ T A x y 6 > * & * * * * * * * * * & * , q h B Y ) ` X.o.&.=.;.;.:.;.;.*.&.&.X.| { ^ ,.,.,.,.,.,.,.,.,.,.,.,.,.,.",
",.,.,.,.,.,.,.,.,.,.,.,.,.,.,.,.,.,.,.,.,.,.,.,.,.,.,.,.,.{ { { { / / / { { | X.X.X._ L m f r 8 < > * * * * * * * * * * * * * > 3 w f b S Y  .#.;.;.:.:.;.=.*.o.o.X. .} ,.,.,.,.,.,.,.,.,.,.,.,.,.,.,.,.",
",.,.,.,.,.,.,.,.,.,.,.,.,.,.,.,.,.,.,.,.,.,.,.,.,.,.,.,.,.,.{ { { { { { { { } | | _ I C f q 7 < > > > - - * > * - - - - * * > > , < 7 r k D ' $.:.>.:.:.;.=.&.o.| } } ,.,.,.,.,.,.,.,.,.,.,.,.,.,.,.,.,.",
",.,.,.,.,.,.,.,.,.,.,.,.,.,.,.,.,.,.,.,.,.,.,.,.,.,.,.,.,.,.,.{ { { { { { { } { { / L v y 7 < > > > * > > * > > > > > * > > > > > > < 8 f S ) $.:.>.:.:.:.*.#. .} { ,.,.,.,.,.,.,.,.,.,.,.,.,.,.,.,.,.,.",
",.,.,.,.,.,.,.,.,.,.,.,.,.,.,.,.,.,.,.,.,.,.,.,.,.,.,.,.,.,.,.{ { / { { / { { { / ! L C g r 8 < < > > * > * * - * * * * * * * * > < 6 r k G [ =.>.>.>.:.;.*.o. .{ ^ ,.,.,.,.,.,.,.,.,.,.,.,.,.,.,.,.,.,.",
",.,.,.,.,.,.,.,.,.,.,.,.,.,.,.,.,.,.,.,.,.,.,.,.,.,.,.,.,.,.,.,.,.{ / { { { { { / ^ ! A m g d r 6 > * * * * * * * * * * & * * > < 8 y k Z W ..;.:.>.>.:.:.=.&. .,.,.,.,.,.,.,.,.,.,.,.,.,.,.,.,.,.,.,.,.",
",.,.,.,.,.,.,.,.,.,.,.,.,.,.,.,.,.,.,.,.,.,.,.,.,.,.,.,.,.,.,.,.,.,.{ { { / { { / ^ ! ! ! A v d 8 < * * * * > * > * * * & * * < 8 d c A ~ ` @.;.:.:.:.:.:.;.*.,.,.,.,.,.,.,.,.,.,.,.,.,.,.,.,.,.,.,.,.,.",
",.,.,.,.,.,.,.,.,.,.,.,.,.,.,.,.,.,.,.,.,.,.,.,.,.,.,.,.,.,.,.,.,.,.,.{ { { { { { { } { / ! A v y 6 < > > > < > < , , , > ; , 7 y c L ~ } #.*.:.:.:.:.:.:.;.;.,.,.,.,.,.,.,.,.,.,.,.,.,.,.,.,.,.,.,.,.,.",
",.,.,.,.,.,.,.,.,.,.,.,.,.,.,.,.,.,.,.,.,.,.,.,.,.,.,.,.,.,.,.,.,.,./ { { { } } | | } } } / ! C g r 8 6 6 8 8 8 q q w q q q q p k F ~ } o.*.=.:.:.;.;.;.=.;.;.,.,.,.,.,.,.,.,.,.,.,.,.,.,.,.,.,.,.,.,.,.",
",.,.,.,.,.,.,.,.,.,.,.,.,.,.,.,.,.,.,.,.,.,.,.,.,.,.,.,.,.,.,.,.,./ / / / { } | X.o.o.X.} { ! L C g d d d d g g k c z b b z b M G R  .o.*.=.;.;.;.;.*.*.&.&.*.=.,.,.,.,.,.,.,.,.,.,.,.,.,.,.,.,.,.,.,.,.",
",.,.,.,.,.,.,.,.,.,.,.,.,.,.,.,.,.,.,.,.,.,.,.,.,.,.,.,.,.,.,.,.{ { / / / } | o.&.&.&.o.| { / ! L A A C C C A A G U E W Y E W W ) ..@.*.;.:.>.:.;.*.#.o.X.#.&.=.:.>.:.>.:.:.,.,.,.,.,.,.,.,.,.,.,.,.,.,.",
",.,.,.,.,.,.,.,.,.,.,.,.,.,.,.,.,.,.,.,.,.,.,.,.,.,.,.,.,.,.,.{ { { / / { } X.&.*.=.*.o.| } / ! ^ ! ! ! ! ! ^ / ` ..#.&.$.@.@.@.$.=.=.-.;.:.:.;.;.*.o.|  .X.&.=.:.:.:.:.:.:.:.,.,.,.,.,.,.,.,.,.,.,.,.,.",
",.,.,.,.,.,.,.,.,.,.,.,.,.,.,.,.,.,.,.,.,.,.,.,.,.,.,.,.,.,.{ { { { { } } | o.&.*.=.*.&. .} } } / / / / ^ / { | o.&.=.;.;.:.:.:.:.:.:.:.:.:.:.;.=.@.o.| | o.#.*.=.;.;.=.;.;.;.,.,.,.,.,.,.,.,.,.,.,.,.,.",
",.,.,.,.,.,.,.,.,.,.,.,.,.,.,.,.,.,.,.,.,.,.,.,.,.,.,.,.,.{ / / { } } | X.X.#.&.*.*.&.&.#.X. .| } } / { / } } | o.&.*.;.;.;.:.>.>.:.:.:.;.-.=.*.&.&.o.X.o.o.#.&.*.*.*.*.*.*.=.=.,.,.,.,.,.,.,.,.,.,.,.,.",
",.,.,.,.,.,.,.,.,.,.,.,.,.,.,.,.,.,.,.,.,.,.,.:.;.*.o.| { / / { / }  .o.&.&.&.#.o.o.o.&.&.&.&.o.| } { { / { { | X.X.&.&.*.;.:.:.>.>.:.:.=.*.&.o.o.o.#.&.#.#.#.o.o.o.o.o.o.#.&.*.;.:.,.,.,.,.,.,.,.,.,.,.",
",.,.,.,.,.,.,.,.,.,.,.,.,.,.,.,.,.,.,.,.,.,.:.:.=.*.o.} { ^ / / { | X.@.*.=.&.o.X.X.X.&.*.*.*.o. .} { { / { { } } } | X.&.=.;.>.:.:.:.;.=.&.o. . .o.&.*.*.*.#.X. .} } } | X.#.*.;.:.:.,.,.,.,.,.,.,.,.,.",
",.,.,.,.,.,.,.,.,.,.,.,.,.,.,.,.,.,.,.,.,.,.:.;.=.*.o.| { { / / { | o.*.=.=.&.o.X.| X.#.*.=.=.&.o.| { { { { { { { { } | #.&.=.:.:.:.:.:.=.&.X.|  .o.*.=.=.*.o. .} { { { { | o.@.=.:.:.,.,.,.,.,.,.,.,.,.",
",.,.,.,.,.,.,.,.,.,.,.,.,.,.,.,.,.,.,.,.,.,.=.*.*.#.X.| { / / / { | o.&.*.*.&.o.X.X.X.&.*.*.*.&.o.X. .| } { { { } } | X.o.&.*.*.;.:.:.;.=.&.o.X.X.o.&.*.*.&.o.| { ^ ^ ^ { } X.#.*.*.*.,.,.,.,.,.,.,.,.,.",
",.,.,.,.,.,.,.,.,.,.,.,.,.,.,.,.,.,.,.,.,.,.#.#.o.o.X.} { _ ,.,.} | X.o.#.&.@.#.#.#.#.#.&.o.&.&.#.&.o.X.| { { { } X.#.#.o.#.#.&.*.=.;.:.;.=.*.#.o.#.o.#.#.o. .} { ,.,.,./ }  .o.o.&.&.,.,.,.,.,.,.,.,.,.",
",.,.,.,.,.,.,.,.,.,.,.,.,.,.,.,.,.,.,.,.,.,.X. . .| | ,.,.,.,.,.,.,.|  . .X.o.&.&.*.&.&.o.X.o.#.*.*.*.o. .} } } X.&.*.&.&.o.X.X.o.*.;.:.:.;.=.=.*.&.o.X. . .| ,.,.,.,.,.,.,.|  . . . .,.,.,.,.,.,.,.,.,.",
",.,.,.,.,.,.,.,.,.,.,.,.,.,.,.,.,.,.,.,.,.,.} } } { ,.,.,.,.,.,.,.,.,.{ }  .o.&.=.=.*.#.X.}  .o.&.=.*.*.o.| } | #.*.=.=.&.X. . .o.&.=.;.:.:.:.;.=.&.o.| } { ,.,.,.,.,.,.,.,.,.{ } } } ,.,.,.,.,.,.,.,.,.",
",.,.,.,.,.,.,.,.,.,.,.,.,.,.,.,.,.,.,.,.,.,./ / { { ,.,.,.,.,.,.,.,.,.{ { }  .o.*.*.&.X.| } } X.@.*.=.*.o.X.| X.#.&.*.*.&.o.X. .o.#.*.=.-.:.:.:.=.*.o.} { ^ ,.,.,.,.,.,.,.,.,.{ / / / ,.,.,.,.,.,.,.,.,.",
",.,.,.,.,.,.,.,.,.,.,.,.,.,.,.,.,.,.,.,.,.,.,./ / ,.,.,.,.,.,.,.,.,.,.^ / { | o.#.#.#.X.} { { | o.#.&.&.&.o.#.#.#.&.&.&.#.o.#.o.o.o.&.*.*.=.;.:.;.*.o.} { ,.,.,.,.,.,.,.,.,.,.,./ / ,.,.,.,.,.,.,.,.,.,.",
",.,.,.,.,.,.,.,.,.,.,.,.,.,.,.,.,.,.,.,.,.,.,.,.,.,.,.,.,.,.,.,.,.,.,./ { { } | X. . .| } { { } |  .o.#.&.*.*.&.#.o.o.o.o.&.&.*.&.o.o.o.&.*.=.:.;.=.*.,.,.,.,.,.,.,.,.,.,.,.,.,.,.,.,.,.,.,.,.,.,.,.,.,.",
",.,.,.,.,.,.,.,.,.,.,.,.,.,.,.,.,.,.,.,.,.,.,.,.,.,.,.,.,.,.,.,.,.,.,.{ { { { { } } } { { { { { } } X.X.*.*.*.*.#.o. . .o.&.=.*.&.o. . .X.&.=.:.:.:.,.,.,.,.,.,.,.,.,.,.,.,.,.,.,.,.,.,.,.,.,.,.,.,.,.,.",
",.,.,.,.,.,.,.,.,.,.,.,.,.,.,.,.,.,.,.,.,.,.,.,.,.,.,.,.,.,.,.,.,.,.,.{ _ { { { { { { { { { { ^ / { } X.#.*.=.*.o.X. . .o.&.=.*.@.o.| | | o.*.;.:.:.,.,.,.,.,.,.,.,.,.,.,.,.,.,.,.,.,.,.,.,.,.,.,.,.,.,.",
",.,.,.,.,.,.,.,.,.,.,.,.,.,.,.,.,.,.,.,.,.,.,.,.,.,.,.,.,.,.,.,.,.,.,.,.{ { { { { ^ / / { { { / / / } | o.#.*.*.#.o.o.o.#.&.*.*.o. .} { } X.*.;.:.,.,.,.,.,.,.,.,.,.,.,.,.,.,.,.,.,.,.,.,.,.,.,.,.,.,.,.",
",.,.,.,.,.,.,.,.,.,.,.,.,.,.,.,.,.,.,.,.,.,.,.,.,.,.,.,.,.,.,.,.,.,.,.,.,.,.,.,.,.,.{ / { { { / / / { } | o.o.#.#.&.&.&.#.#.#.o. .| { { }  .#.,.,.,.,.,.,.,.,.,.,.,.,.,.,.,.,.,.,.,.,.,.,.,.,.,.,.,.,.,.",
",.,.,.,.,.,.,.,.,.,.,.,.,.,.,.,.,.,.,.,.,.,.,.,.,.,.,.,.,.,.,.,.,.,.,.,.,.,.,.,.,.,.,.{ { { / { / { / } } } | o.#.*.*.*.&.o. .| } { { { { } ,.,.,.,.,.,.,.,.,.,.,.,.,.,.,.,.,.,.,.,.,.,.,.,.,.,.,.,.,.,.",
",.,.,.,.,.,.,.,.,.,.,.,.,.,.,.,.,.,.,.,.,.,.,.,.,.,.,.,.,.,.,.,.,.,.,.,.,.,.,.,.,.,.,.,.{ ^ { { { { { { / { }  .#.*.=.=.@.o.| { { { { { { { ,.,.,.,.,.,.,.,.,.,.,.,.,.,.,.,.,.,.,.,.,.,.,.,.,.,.,.,.,.,.",
",.,.,.,.,.,.,.,.,.,.,.,.,.,.,.,.,.,.,.,.,.,.,.,.,.,.,.,.,.,.,.,.,.,.,.,.,.,.,.,.,.,.,.,.{ { { { { { / / / / { | X.&.*.&.#.X.{ { / / { { { ,.,.,.,.,.,.,.,.,.,.,.,.,.,.,.,.,.,.,.,.,.,.,.,.,.,.,.,.,.,.,.",
",.,.,.,.,.,.,.,.,.,.,.,.,.,.,.,.,.,.,.,.,.,.,.,.,.,.,.,.,.,.,.,.,.,.,.,.,.,.,.,.,.,.,.,.,.{ { { { { { ^ { ^ { } X.o.o.o.o.| { { ^ / { { ,.,.,.,.,.,.,.,.,.,.,.,.,.,.,.,.,.,.,.,.,.,.,.,.,.,.,.,.,.,.,.,.",
",.,.,.,.,.,.,.,.,.,.,.,.,.,.,.,.,.,.,.,.,.,.,.,.,.,.,.,.,.,.,.,.,.,.,.,.,.,.,.,.,.,.,.,.,.,.,.{ { { { { / { { { } | | | } { { { / { ,.,.,.,.,.,.,.,.,.,.,.,.,.,.,.,.,.,.,.,.,.,.,.,.,.,.,.,.,.,.,.,.,.,.",
",.,.,.,.,.,.,.,.,.,.,.,.,.,.,.,.,.,.,.,.,.,.,.,.,.,.,.,.,.,.,.,.,.,.,.,.,.,.,.,.,.,.,.,.,.,.,.,.{ / / { { { { { { } { } { { { { { ,.,.,.,.,.,.,.,.,.,.,.,.,.,.,.,.,.,.,.,.,.,.,.,.,.,.,.,.,.,.,.,.,.,.,.",
",.,.,.,.,.,.,.,.,.,.,.,.,.,.,.,.,.,.,.,.,.,.,.,.,.,.,.,.,.,.,.,.,.,.,.,.,.,.,.,.,.,.,.,.,.,.,.,.{ { { { { { { { { { { / { { { { { ,.,.,.,.,.,.,.,.,.,.,.,.,.,.,.,.,.,.,.,.,.,.,.,.,.,.,.,.,.,.,.,.,.,.,.",
",.,.,.,.,.,.,.,.,.,.,.,.,.,.,.,.,.,.,.,.,.,.,.,.,.,.,.,.,.,.,.,.,.,.,.,.,.,.,.,.,.,.,.,.,.,.,.,.,.{ { { { { { { { / / / _ { { { ,.,.,.,.,.,.,.,.,.,.,.,.,.,.,.,.,.,.,.,.,.,.,.,.,.,.,.,.,.,.,.,.,.,.,.,.",
",.,.,.,.,.,.,.,.,.,.,.,.,.,.,.,.,.,.,.,.,.,.,.,.,.,.,.,.,.,.,.,.,.,.,.,.,.,.,.,.,.,.,.,.,.,.,.,.,.,.,.,.,.,.,.,.,.,.,.,.,.,.,.,.,.,.,.,.,.,.,.,.,.,.,.,.,.,.,.,.,.,.,.,.,.,.,.,.,.,.,.,.,.,.,.,.,.,.,.,.",
",.,.,.,.,.,.,.,.,.,.,.,.,.,.,.,.,.,.,.,.,.,.,.,.,.,.,.,.,.,.,.,.,.,.,.,.,.,.,.,.,.,.,.,.,.,.,.,.,.,.,.,.,.,.,.,.,.,.,.,.,.,.,.,.,.,.,.,.,.,.,.,.,.,.,.,.,.,.,.,.,.,.,.,.,.,.,.,.,.,.,.,.,.,.,.,.,.,.,.,.",
",.,.,.,.,.,.,.,.,.,.,.,.,.,.,.,.,.,.,.,.,.,.,.,.,.,.,.,.,.,.,.,.,.,.,.,.,.,.,.,.,.,.,.,.,.,.,.,.,.,.,.,.,.,.,.,.,.,.,.,.,.,.,.,.,.,.,.,.,.,.,.,.,.,.,.,.,.,.,.,.,.,.,.,.,.,.,.,.,.,.,.,.,.,.,.,.,.,.,.,.",
",.,.,.,.,.,.,.,.,.,.,.,.,.,.,.,.,.,.,.,.,.,.,.,.,.,.,.,.,.,.,.,.,.,.,.,.,.,.,.,.,.,.,.,.,.,.,.,.,.,.,.,.,.,.,.,.,.,.,.,.,.,.,.,.,.,.,.,.,.,.,.,.,.,.,.,.,.,.,.,.,.,.,.,.,.,.,.,.,.,.,.,.,.,.,.,.,.,.,.,.",
",.,.,.,.,.,.,.,.,.,.,.,.,.,.,.,.,.,.,.,.,.,.,.,.,.,.,.,.,.,.,.,.,.,.,.,.,.,.,.,.,.,.,.,.,.,.,.,.,.,.,.,.,.,.,.,.,.,.,.,.,.,.,.,.,.,.,.,.,.,.,.,.,.,.,.,.,.,.,.,.,.,.,.,.,.,.,.,.,.,.,.,.,.,.,.,.,.,.,.,.",
",.,.,.,.,.,.,.,.,.,.,.,.,.,.,.,.,.,.,.,.,.,.,.,.,.,.,.,.,.,.,.,.,.,.,.,.,.,.,.,.,.,.,.,.,.,.,.,.,.,.,.,.,.,.,.,.,.,.,.,.,.,.,.,.,.,.,.,.,.,.,.,.,.,.,.,.,.,.,.,.,.,.,.,.,.,.,.,.,.,.,.,.,.,.,.,.,.,.,.,.",
",.,.,.,.,.,.,.,.,.,.,.,.,.,.,.,.,.,.,.,.,.,.,.,.,.,.,.,.,.,.,.,.,.,.,.,.,.,.,.,.,.,.,.,.,.,.,.,.,.,.,.,.,.,.,.,.,.,.,.,.,.,.,.,.,.,.,.,.,.,.,.,.,.,.,.,.,.,.,.,.,.,.,.,.,.,.,.,.,.,.,.,.,.,.,.,.,.,.,.,.",
",.,.,.,.,.,.,.,.,.,.,.,.,.,.,.,.,.,.,.,.,.,.,.,.,.,.,.,.,.,.,.,.,.,.,.,.,.,.,.,.,.,.,.,.,.,.,.,.,.,.,.,.,.,.,.,.,.,.,.,.,.,.,.,.,.,.,.,.,.,.,.,.,.,.,.,.,.,.,.,.,.,.,.,.,.,.,.,.,.,.,.,.,.,.,.,.,.,.,.,.",
",.,.,.,.,.,.,.,.,.,.,.,.,.,.,.,.,.,.,.,.,.,.,.,.,.,.,.,.,.,.,.,.,.,.,.,.,.,.,.,.,.,.,.,.,.,.,.,.,.,.,.,.,.,.,.,.,.,.,.,.,.,.,.,.,.,.,.,.,.,.,.,.,.,.,.,.,.,.,.,.,.,.,.,.,.,.,.,.,.,.,.,.,.,.,.,.,.,.,.,.",
",.,.,.,.,.,.,.,.,.,.,.,.,.,.,.,.,.,.,.,.,.,.,.,.,.,.,.,.,.,.,.,.,.,.,.,.,.,.,.,.,.,.,.,.,.,.,.,.,.,.,.,.,.,.,.,.,.,.,.,.,.,.,.,.,.,.,.,.,.,.,.,.,.,.,.,.,.,.,.,.,.,.,.,.,.,.,.,.,.,.,.,.,.,.,.,.,.,.,.,.",
",.,.,.,.,.,.,.,.,.,.,.,.,.,.,.,.,.,.,.,.,.,.,.,.,.,.,.,.,.,.,.,.,.,.,.,.,.,.,.,.,.,.,.,.,.,.,.,.,.,.,.,.,.,.,.,.,.,.,.,.,.,.,.,.,.,.,.,.,.,.,.,.,.,.,.,.,.,.,.,.,.,.,.,.,.,.,.,.,.,.,.,.,.,.,.,.,.,.,.,.",
",.,.,.,.,.,.,.,.,.,.,.,.,.,.,.,.,.,.,.,.,.,.,.,.,.,.,.,.,.,.,.,.,.,.,.,.,.,.,.,.,.,.,.,.,.,.,.,.,.,.,.,.,.,.,.,.,.,.,.,.,.,.,.,.,.,.,.,.,.,.,.,.,.,.,.,.,.,.,.,.,.,.,.,.,.,.,.,.,.,.,.,.,.,.,.,.,.,.,.,.",
",.,.,.,.,.,.,.,.,.,.,.,.,.,.,.,.,.,.,.,.,.,.,.,.,.,.,.,.,.,.,.,.,.,.,.,.,.,.,.,.,.,.,.,.,.,.,.,.,.,.,.,.,.,.,.,.,.,.,.,.,.,.,.,.,.,.,.,.,.,.,.,.,.,.,.,.,.,.,.,.,.,.,.,.,.,.,.,.,.,.,.,.,.,.,.,.,.,.,.,."
};
